<svg xmlns="http://www.w3.org/2000/svg" width="659" height="507" viewBox="0 0 659 507">
    <defs>
        <linearGradient id="a" x1="84.607%" x2="-36.658%" y1="62.925%" y2="62.925%">
            <stop offset="0%" stop-color="#D5C0A2"/>
            <stop offset="100%" stop-color="#CCAC7C"/>
        </linearGradient>
        <linearGradient id="b" x1="84.607%" x2="-36.658%" y1="62.925%" y2="62.925%">
            <stop offset="0%" stop-color="#F6E5CB"/>
            <stop offset="100%" stop-color="#CCAC7C"/>
        </linearGradient>
        <linearGradient id="c" x1="84.607%" x2="-36.658%" y1="62.925%" y2="62.925%">
            <stop offset="0%" stop-color="#FEF2E1"/>
            <stop offset="100%" stop-color="#CCAC7C"/>
        </linearGradient>
        <linearGradient id="d" x1="84.607%" x2="-36.658%" y1="62.925%" y2="62.925%">
            <stop offset="0%" stop-color="#F3E3CB"/>
            <stop offset="100%" stop-color="#CCAC7C"/>
        </linearGradient>
    </defs>
    <g fill="none" fill-rule="evenodd">
        <path fill="#F2F2F2" d="M20.82 204.135a81.676 81.676 0 0 1-7.688-58.305C26.638 90.064 64.979-7.811 166.452 6.047c140.794 19.248 181.72 24.06 239.489 6.01 57.768-18.05 157.651-18.03 188.942 22.835 18.967 24.771 83.036 135.805 42.12 174.301-40.916 38.496 19.807 114.606 21.66 155.053 1.852 40.447-56.559 45.65-129.97 46.88-73.41 1.23-500.09-12.774-500.09-12.774s-54.7-94.224-11.376-127.881c26.81-20.814 14.808-45.762 3.592-66.336z"/>
        <path fill="#E5AD58" fill-rule="nonzero" d="M63.507 354.28c-9.39-.326-44.567 4.47-46.628 6.309-.535.497-8.228 23.343 25.621 52.873 54.155 47.243 199.89 48.858 247.123 30.887 68.523-26.075 143.61 22.82 299.253 4.107 49.738-5.978 82.977-82.071 60.365-91.936-13.539-5.881-29.749 9.726-43.363 2.877-15.669-7.897-47.42-12.832-67.077-6.775a1.518 1.518 0 0 0 .685 2.957l-10.353 3.299c-11.505 8.555-8.914-2.812-35.9-4.277l-79.567-1.963c-28.448.856-137.908 5.662-180.735 3.952h-23.555c-15.718-1.963-56.49-2.893-57.956-2.941l-87.913.63z" opacity=".296"/>
        <path fill="#E5AD58" fill-rule="nonzero" d="M96.416 237.73h24.087s7.494 1.069 8.029 6.416c.535 5.348-.177 74.908-.177 74.908l48.351-.577s4.818 1.604 4.818 6.952c0 5.347-3.747 7.486-3.747 7.486l-73.46-.331-7.901-94.855" opacity=".442"/>
        <path fill="#E5AD58" fill-rule="nonzero" d="M96.416 237.73s-6.959 1.069-7.494 11.764c-.535 10.695 0 82.886 0 82.886l73.39.535a3.776 3.776 0 0 0 2.8-1.219c1.07-1.176 2.495-3.016 2.495-4.652 0-2.883-1.07-7.487-6.959-7.487-5.888 0-55.668-.535-55.668-.535l-1.07-74.865s0-5.358-7.494-6.428z" opacity=".595"/>
        <path fill="#BAC6F2" fill-rule="nonzero" d="M127.15 332.733s-1.294 6.065 2.988 6.065h6.958c.535 0 2.816-3.209 1.408-5.883s-11.348-.187-11.348-.187"/>
        <path fill="#E9EDFA" fill-rule="nonzero" d="M130.138 338.83l.535 60.395h4.817l.268-60.743z"/>
        <path fill="#E9EDFA" fill-rule="nonzero" d="M110.333 398.155l46.033.535v4.278l-46.033-.535z"/>
        <g fill-rule="nonzero">
            <path fill="#FFF" d="M201.384 403.897L199.24 291.96h11.252l-.536 111.937zM446.233 292.496h12.323l-4.286 111.936-8.037.536z"/>
            <path fill="#E5AD58" d="M190.668 272.68l.536 18.21 272.71 1.606.29-20.368z" opacity=".345"/>
            <path fill="#E5AD58" d="M174.059 262.503l306.464 1.072v10.176l-305.928-.536z" opacity=".797"/>
        </g>
        <g>
            <path fill="#E9EDFA" fill-rule="nonzero" d="M548.67 357.484l.535 45.35 60.874-1.066v-44.284z"/>
            <path fill="#FFF" fill-rule="nonzero" d="M596.713 401.986l.037-44.502h-3.855"/>
            <path fill="#F8DCB2" d="M564.445 357.388s-1.453-26.896 11.277-34.53c12.73-7.635 1.821-25.445 4.363-34.894 2.542-9.449 14.55-16.353 14.55-23.625 0-7.272-1.067-27.621 12.731-33.8 13.798-6.178 24.734 1.82 20.371 13.814-4.362 11.994-7.64 25.807-12.367 30.166-4.725 4.359-2.91 11.268-2.184 19.629.727 8.36-5.82 22.168-9.456 27.258-3.637 5.09 0 13.814-1.068 22.9 0 0-1.987 12.72-3.984 13.14-1.997.422-34.233-.058-34.233-.058z"/>
            <path fill="#E5AD58" d="M592.874 358.215s1.602-12.805-12.586-16.412c-14.188-3.606-2.03-12.095-4.87-16.582-2.84-4.487-16.238-7.774-16.238-11.204 0-3.43 1.217-13.13-14.21-16.065-15.426-2.934-27.606.864-22.737 6.562 4.87 5.699 8.544 12.272 13.804 14.342 5.26 2.07 3.246 5.335 2.435 9.331-.812 3.997 6.493 10.538 10.557 12.955 4.063 2.417 0 6.562 1.217 10.884 0 0 2.216 6.045 4.443 6.248 2.227.202 38.185-.06 38.185-.06z"/>
            <path fill="#E5AD58" d="M581.003 358.21s-1.132-13.37 8.763-17.164c9.895-3.794 1.415-12.645 3.39-17.346 1.977-4.7 11.305-8.13 11.305-11.737 0-3.607-.849-13.734 9.89-16.801 10.738-3.068 19.223.901 15.827 6.866-3.396 5.965-5.933 12.805-9.612 14.998-3.68 2.193-2.259 5.602-1.698 9.758.56 4.157-4.523 11.023-7.348 13.552-2.824 2.53 0 6.867-.849 11.38 0 0-1.543 6.323-3.091 6.531-1.549.208-26.577-.037-26.577-.037z"/>
        </g>
        <g transform="translate(112 99)">
            <path fill="#FFF" fill-rule="nonzero" d="M125.66.39l.396 102.316 285.484-.394V1.185z"/>
            <path fill="#E5AD58" fill-rule="nonzero" d="M176.748 32.41v12.595l116.912-.55V32.41zM176.748 67.446v12.595l116.912-.55V67.446z" opacity=".598"/>
            <ellipse cx="156.988" cy="40.64" fill="#E5AD58" fill-rule="nonzero" opacity=".598" rx="8.78" ry="8.758"/>
            <ellipse cx="156.988" cy="73.349" fill="#E5AD58" fill-rule="nonzero" opacity=".598" rx="8.78" ry="8.758"/>
            <path fill="#E5AD58" fill-rule="nonzero" d="M325.571 46.19h69.409v33.771h-69.409z" opacity=".576"/>
            <path stroke="#E5AD58" stroke-linecap="round" stroke-linejoin="round" stroke-width="3" d="M324.49 78.35s5.404-11.806 10.546-10.52c5.142 1.287 6.421 6.672 10.29 4.36 3.868-2.31 6.367-11.596 10.118-13.048 5.35-2.076 7.116.214 14.323 4.323 7.208 4.11 10.268 3.202 13.238.17 2.713-2.774 7.758-10.304 13.344-13.656" opacity=".698"/>
            <path fill="#FFF" fill-rule="nonzero" d="M.155 1.713h103.268v97.914H.155z"/>
            <ellipse cx="50.435" cy="60.989" stroke="#E5AD58" stroke-linecap="round" stroke-linejoin="round" stroke-width="6" opacity=".598" rx="26.716" ry="26.647"/>
            <path fill="#E5AD58" fill-rule="nonzero" d="M6.94 10.167h26.272v6.196H6.94zM6.94 19.885h26.272v6.196H6.94z" opacity=".598"/>
        </g>
        <g>
            <g transform="translate(58 106)">
                <path fill="#AFB9C5" d="M113.732 50.8l111.464 15.204c4.277.583 7.258 4.464 6.674 8.734l-16.46 120.335a7.754 7.754 0 0 1-8.749 6.663L95.198 186.533c-4.277-.582-7.258-4.464-6.675-8.734l16.46-120.334c.583-4.206 4.472-7.246 8.749-6.664z"/>
                <circle cx="164.913" cy="146.989" r="1" stroke="#C1272D" stroke-width=".873"/>
                <g fill="#A6762E" fill-rule="nonzero">
                    <path d="M60.916 379.456c-3.305.647-14.84-2.911-16.784-4.723-.648-.582-1.167-2.264-1.685-2.976-.454-2.264-1.555-1.1-2.657-1.293-3.305-.712-12.248-3.041-16.46-.777-.778 1.747-.843 3.429-1.361 4.4-1.102 4.399-1.815 8.928-2.268 13.456-.324 2.782 1.684 5.24 4.406 5.564h.13c.907.065 1.88 0 2.851-.13 7.129-1.746 21.58-2.199 27.153-4.399 9.332-2.458 14.646-7.375 6.675-9.122zM171.797 384.697c-3.24.84-15.035-2.006-17.044-3.688-.713-.518-1.296-2.135-1.88-2.847-.582-2.2-1.62-1.035-2.721-1.164-3.37-.518-12.443-2.33-16.525.194-.713 1.747-.583 3.493-1.037 4.464-.778 4.464-1.296 9.057-1.426 13.586-.13 2.782 2.01 5.111 4.796 5.305h.129c.908.065 1.88-.065 2.787-.259 6.999-2.2 21.385-3.493 26.829-6.081 9.137-3.04 14.192-8.281 6.092-9.51z"/>
                </g>
                <path fill="url(#a)" fill-rule="nonzero" d="M22.94 369.817c5.639.776 19.183.97 19.183.97s.842-6.599 4.99-19.28c4.212-12.874 25.403-53.244 25.403-53.244 4.342-6.6 8.878-20.25 8.878-20.25l6.351-52.274s33.504 52.21 33.05 64.049c-.453 11.839 7.842 58.161 7.842 58.161.842 6.923 4.99 29.825 4.99 29.825 6.221-.776 12.507-.906 18.793-.517-.842-9.51-4.277-48.522-4.277-48.522s-2.139-30.278-2.592-48.716c-.454-18.439-13.61-57.321-22.487-75.112a76.626 76.626 0 0 1-2.917-9.252L41.8 205.554c1.75 4.981 3.175 10.027 4.212 15.203 4.601 23.097 7.842 61.914 7.842 61.914-12.249 13.845-19.96 39.918-19.96 39.918-4.99 15.656-10.952 47.228-10.952 47.228z"/>
                <path fill="url(#b)" fill-rule="nonzero" d="M84.468 19.797c-12.053-2.264-24.431 2.006-24.431 2.006l-2.074.646-12.831 16.433 11.86-3.17c3.174-1.1 9.396-2.782 12.247-2.588 2.139-.13 7.193.906 9.591-1.035 1.815-.84 2.139-2.329 5.833-5.952 2.657-2.911 1.879-3.752 2.916-4.14 1.36-.583.194-1.941-3.11-2.2z" transform="translate(25.57 29.645)"/>
                <path fill="url(#c)" fill-rule="nonzero" d="M127.045 165.751c-.13-.647-2.463-.259-2.852-.841-2.527-3.558-5.508-8.087-11.859-10.222a27.553 27.553 0 0 0-5.573-1.165l-4.277 7.44c.518 1.294 1.231 2.524 2.009 3.623 2.592 3.494 8.035 8.217 18.015 6.923 2.333-.259 4.86-3.364 4.537-5.758z" transform="translate(25.57 29.645)"/>
                <path fill="url(#d)" fill-rule="nonzero" d="M37.939.323c-1.426 0-31.495 23.162-31.755 25.75-.064 1.358-.13 7.245-1.166 11.127C4.046 40.823 1.13 46 1.13 46s2.592 4.852 9.331 5.822c6.48.906 15.165-1.229 15.165-1.229s-2.01-12.81.453-14.233c2.139-1.23 2.787.065 10.175-6.146 7.387-6.21 4.99-21.867 4.795-22.902-.194-1.035-1.685-6.988-3.11-6.988z" transform="translate(25.57 29.645)"/>
                <path fill="#C3AD8D" d="M27 69l-1 7 25 6v-7z"/>
                <path fill="#D2BB98" fill-rule="nonzero" d="M97.855 138.334c-9.786-8.863-16.007-36.488-19.118-43.41-3.11-6.923-8.1-8.864-10.044-9.64-.972-.388-6.351-1.876-10.369-3.04l29.162-18.31c3.953-7.44-3.823-11.904-3.823-11.904l-33.18 16.433v11.192l-10.758-1.747-12.831-2.523c-3.953-.905-7.971-1.552-11.989-1.876-1.685-.13-3.37.065-4.99.647l-.842.324c-2.01.711-3.694 2.135-4.666 4.075-2.074 4.53-3.5 9.381-4.148 14.298-1.231 7.958 4.925 26.008 11.211 39.141 2.722 5.564 13.35 34.16 16.007 41.341 12.961 30.019 13.868 32.348 13.868 32.348 39.79-.388 78.543-9.252 78.543-9.252 1.815-3.3-4.73-12.874-4.73-12.874l12.053 9.963c5.25 1.682 9.591-10.028 9.591-10.028s-30.717-37.718-38.947-45.158z"/>
                <path fill="#4C4A4A" fill-rule="nonzero" d="M26.116 31.327c.648-1.164 2.074-3.817 2.916-4.787 1.426-1.488 2.981-2.911 4.602-4.27 1.49-.906 5.184-2.782 6.61-3.558 5.054-1.553 11.794 0 16.72.258 4.47-.323 7.776 5.24 9.525 8.928 1.75 3.688-1.62 3.235-1.296 6.082.065.517-1.425 1.294-2.721 2.005-1.297.712-4.99 6.6-6.287 9.381-1.36-6.793-5.897 5.305-5.054 6.793-1.815 1.165-4.018 6.082-7.258 7.635-2.269-.97-6.48-4.723-12.119-3.688-.389-1.035-5.962-5.176-6.545-12.163-.454-2.07-.907-9.51.907-12.616z"/>
                <path fill="#000" fill-rule="nonzero" d="M43.29 61.864s5.054 4.529 8.1 4.4l-.778 3.816.195 5.5s-1.944-3.106-4.407-6.276c-1.555-2.2-2.657-4.723-3.11-7.44zM61.63 117.438s6.35 19.085 25.92 38.947c19.572 19.861 24.303 24.002 24.303 24.002s4.017 5.046 2.721 8.41c-1.296 3.364-9.85-7.893-29.032-16.627-10.952-4.981-14.71-13.586-19.765-25.62-6.351-15.203-7.777-18.438-8.62-23.872-2.138-14.233 4.472-5.24 4.472-5.24zM87.68 225.674s-9.267 19.991-11.924 29.76c-2.721 10.093-2.721 24.779-10.887 31.895-9.267 8.087-20.154 35.26-22.681 41.017-3.565 8.217-10.887 53.504-8.749 56.674 2.074 3.106 10.434-1.553 10.434-1.553s-3.046-11.515-.454-21.932c2.592-10.416 14.775-38.235 22.422-52.015 6.934-12.357 13.998-26.655 15.553-34.936 1.556-8.281 6.286-48.91 6.286-48.91z" opacity=".07"/>
                <path fill="#000" d="M25 45L15 22 38 6l29-6v22l-2 12-38 17z"/>
            </g>
        </g>
    </g>
</svg>
