<svg xmlns="http://www.w3.org/2000/svg" width="469" height="361" viewBox="0 0 469 361">
    <g fill="none" fill-rule="evenodd" transform="translate(-1)">
        <path fill="#F2F2F2" d="M50.48 190.86c-7.73-51.51-25-56-38.28-82-12.09-23.65-21.84-62.34 12.28-90 53-43 118 1 118 1s103 59 121 62 62 33 117-3 102-33 117-6-19 105-27 121 4 66 17 86 54 82-34 80-352 1-352 1-94.77-1.77-78-94c14-77 30-56 27-76z"/>
        <circle cx="84.48" cy="163.86" r="20" fill="#E5AD58" fill-rule="nonzero"/>
        <circle cx="50.98" cy="188.36" r="13.5" fill="#E5AD58" fill-rule="nonzero" opacity=".673"/>
        <circle cx="52.98" cy="157.36" r="7.5" fill="#E5AD58" fill-rule="nonzero"/>
        <circle cx="15.98" cy="62.36" r="7.5" fill="#C5CFD6"/>
        <circle cx="140.98" cy="297.36" r="35.5" fill="#E5AD58" fill-rule="nonzero" opacity=".305"/>
        <circle cx="375.48" cy="325.86" r="24" fill="#AFB9C5"/>
        <circle cx="467.48" cy="201.86" r="13" fill="#E1E6FB" fill-rule="nonzero"/>
        <circle cx="370.48" cy="84.86" r="26" fill="#AFB9C5"/>
        <circle cx="131.98" cy="15.36" r="12.5" fill="#C5CFD6"/>
        <circle cx="91.98" cy="264.36" r="12.5" fill="#E5AD58" fill-rule="nonzero" opacity=".305"/>
        <circle cx="474.98" cy="331.36" r="13.5" fill="#BAC5F4" fill-rule="nonzero"/>
    </g>
</svg>
