<svg xmlns="http://www.w3.org/2000/svg" width="685" height="347" viewBox="0 0 685 347">
    <defs>
        <linearGradient id="a" x1="83.448%" x2="30.361%" y1="50%" y2="50%">
            <stop offset="0%" stop-color="#FFF"/>
            <stop offset="71.112%" stop-color="#D3DCF1"/>
            <stop offset="100%" stop-color="#FFF"/>
        </linearGradient>
        <linearGradient id="b" x1="84.607%" x2="-36.658%" y1="62.925%" y2="62.925%">
            <stop offset="0%" stop-color="#D5C0A2"/>
            <stop offset="100%" stop-color="#CCAC7C"/>
        </linearGradient>
        <linearGradient id="c" x1="50%" x2="50%" y1="0%" y2="100%">
            <stop offset="0%" stop-color="#FA6400"/>
            <stop offset="100%" stop-color="#E5AD58"/>
        </linearGradient>
        <linearGradient id="d" x1="50%" x2="50%" y1="0%" y2="100%">
            <stop offset="0%" stop-color="#FA6400"/>
            <stop offset="100%" stop-color="#E5AD58"/>
        </linearGradient>
        <linearGradient id="e" x1="50%" x2="50%" y1="0%" y2="100%">
            <stop offset="0%" stop-color="#FA6400"/>
            <stop offset="100%" stop-color="#E5AD58"/>
        </linearGradient>
        <linearGradient id="f" x1="50%" x2="50%" y1="0%" y2="100%">
            <stop offset="0%" stop-color="#FA6400"/>
            <stop offset="100%" stop-color="#E5AD58"/>
        </linearGradient>
        <linearGradient id="g" x1="50%" x2="50%" y1="0%" y2="100%">
            <stop offset="0%" stop-color="#FA6400"/>
            <stop offset="100%" stop-color="#E5AD58"/>
        </linearGradient>
        <linearGradient id="h" x1="0%" y1="50%" y2="50%">
            <stop offset="0%" stop-color="#4F68CA"/>
            <stop offset="100%" stop-color="#5ACEED"/>
        </linearGradient>
        <linearGradient id="i" x1="0%" y1="50%" y2="50%">
            <stop offset="0%" stop-color="#F87B58"/>
            <stop offset="0%" stop-color="#F87B58"/>
            <stop offset="41%" stop-color="#F89453"/>
            <stop offset="71%" stop-color="#F8C548"/>
            <stop offset="100%" stop-color="#F89C51"/>
        </linearGradient>
        <linearGradient id="j" x1="50%" x2="50%" y1="0%" y2="100%">
            <stop offset="0%" stop-color="#FA6400"/>
            <stop offset="100%" stop-color="#E5AD58"/>
        </linearGradient>
        <linearGradient id="k" x1="0%" y1="50%" y2="50%">
            <stop offset="0%" stop-color="#5ACEED"/>
            <stop offset="55%" stop-color="#4F68CA"/>
            <stop offset="100%" stop-color="#5282D3"/>
        </linearGradient>
    </defs>
    <g fill="none" fill-rule="evenodd">
        <path fill="url(#a)" fill-rule="nonzero" d="M124 329h561v18H124z" transform="matrix(-1 0 0 1 809 0)"/>
        <path fill="url(#b)" fill-rule="nonzero" d="M266.776 310.79c60.63 0 111.084 40.972 235.537 0 124.452-40.972 7.63-91.769 37.036-143.793 29.405-52.024 25.761-158.02-116.797-82.567-44.303 23.45-94.225-43.16-155.776-43.16-37.635 0-68.302-6.25-97.063-18.404C-15.095-55.232-41.517 84.43 54.394 176.031c95.912 91.6-4.896 42.087 123.585 72.04 101.917 23.76 49.545 62.72 88.797 62.72z" opacity=".222"/>
        <path fill="url(#c)" d="M0 69.614c0 38.446 9.142 69.614 20.42 69.614 11.278 0 20.42-31.168 20.42-69.614C40.84 31.167 31.699 0 20.42 0 9.142 0 0 31.167 0 69.614" opacity=".558" transform="translate(459 125)"/>
        <path fill="#8E4A07" d="M487.566 181.085l-7.006 12.607-.367-30.264-2.937-10.562v31.297l-7.57-12.46-3.062-2.747 10.632 19.237v35.482l-10.072-12.425 1.971 5.08 8.101 10.667v43.773l4.24.19-.885-73.1 9.207-19.556z"/>
        <path fill="url(#d)" d="M36.024 159.783c9.013 0 16.874-16.293 21.033-40.45 2.003-11.637 16.963-4.148 3.147-39.441-13.816-35.294-7.027-32.219-2.937-38.191C69.09 24.438 45.192 0 36.024 0 27.29 0 23.02 28.022 15.388 38.239c-21.692 29.044-3.542 26.39-3.542 41.653 0 14.625-28.713-8.08 3.266 40.123 8.207 12.371 11.985 39.768 20.912 39.768z" opacity=".613" transform="translate(188 105)"/>
        <path fill="#8E4A07" d="M231.844 183.49l-5.75 13.537-.302-32.497-2.41-11.342v33.608l-6.215-13.381-2.513-2.95 8.727 20.658v38.101l-8.268-13.342 1.618 5.454 6.65 11.455v47.004l3.48.205-.726-78.496 7.557-21z"/>
        <g>
            <path fill="url(#e)" d="M15.266 107.827V35.712a3.677 3.677 0 0 0 2.221-3.367c0-2.032-1.664-3.678-3.717-3.678-2.052 0-3.716 1.646-3.716 3.678 0 1.505.914 2.797 2.221 3.367v72.115c-1.912.258-3.525 1.004-4.48 2.014H5.38v1.841H22.16v-1.84h-2.413c-.955-1.011-2.567-1.757-4.481-2.015" transform="translate(146 179)"/>
            <path fill="url(#f)" d="M13.803 0C9.363 0 5.44 2.174 3.048 5.502H.667v3.733h26.272V5.502h-2.383A13.212 13.212 0 0 0 13.803 0" transform="translate(146 179)"/>
            <path fill="#FFFFFE" d="M155.499 207.237h9.885l3.421-18.904h-18.097l4.79 18.904"/>
            <path fill="url(#g)" d="M6.728 29.521h13.11V26H6.728z" transform="translate(146 179)"/>
            <path fill="#E5AD58" d="M159.583 207c-1.554 0-2.814 1.247-2.814 2.785s1.26 2.786 2.814 2.786c1.553 0 2.813-1.248 2.813-2.786s-1.26-2.785-2.813-2.785"/>
        </g>
        <g fill-rule="nonzero">
            <g fill="#4B44BE">
                <path d="M346.341 316.102l-1.595-.045-8.286.09s-1.817 8.536-2.792 12.093c-.044.222-.265.8-.354 1.245a8.887 8.887 0 0 0-.177 1.867c.177 3.246 1.373 5.958 4.253 7.425 3.146 1.6 5.584 3.068 8.951 0 3.368-3.068 3.81-5.024 2.526-10.36-1.285-5.335-1.728-12.137-2.526-12.315zM381.036 326.728c-5.716-1.823-9.527-9.604-9.527-9.604l-9.748-.578s-.532 7.914-.798 11.916c-.354 5.335.532 7.692 4.032 7.425 4.609-.356 23.352 1.334 26.32-.578 3.855-2.49-4.962-6.891-10.28-8.581z"/>
            </g>
            <path fill="url(#h)" d="M17.502 131.605v11.693l14.09 128.937h9.97s3.457-88.433 3.457-91.5c0-3.069.886-12.672.886-12.672s12.54 36.325 12.761 39.348c.222 3.023-2.038 65.58-2.038 65.58l9.97.4s8.729-42.327 8.729-46.328c0-4.002 2.968-24.81 2.525-28.811-.443-4.002-7.843-66.336-7.843-66.336l-15.286-.4-37.22.089z" transform="translate(305 44)"/>
            <path fill="url(#i)" d="M82.15 118.044l-.133-.178c.045.134.09.223.133.178zm-29.288-11.337l-5.583 2.312-.31 7.736 6.158 2.445c0-.044 6.736-.267 6.736-.311.044-.311 2.658-.222 3.855.533l20.87-7.202.753-5.024s1.55 6.313-5.45-6.403l-27.03 5.914zm24.946-25.521l-.443-2.534-1.064-.178 1.507 2.712zM39.214 13.827c-2.57 1.067-3.81 4.847-3.81 4.847s-1.241-.756-1.241 1.378 1.063 6.936 1.817 8.18a61.125 61.125 0 0 1 3.589 6.448c1.019 2.223.664 6.758-.4 7.425-1.063.667-20.027 17.74-20.027 17.74L3.5 108.04v1.912l2.393.845 2.482 2.134c.221.045 3.367 1.779 3.81 2.09a35.115 35.115 0 0 0 7.843 2.8c1.772.357 9.615.179 9.615.179l7.932-.178-1.374-10.137-11.742-.134-16.04-.8L24.68 69.226l51.31 9.203c-9.127-16.54-19.363-35.124-20.25-37.08-.753-1.6.045-5.424.488-7.425.399-1.823 1.285-4.046 2.127-4.713.842-.667 2.348-3.601 2.348-4.89 0-1.29.355-6.314-.709-5.247-.31.311-1.55-1.6-1.993-3.513-.71-2.756-2.615-4.712-4.83-6.49 0 0-11.3 3.734-13.825 4.8l-.133-.044z" transform="translate(305 44)"/>
            <path fill="url(#j)" d="M19.585 49.485c-2.481 1.69-4.786 3.957-5.627 6.892-.842 2.934-6.824 25.787-7.622 28.677-1.95 7.07-3.101 9.115-5.405 17.429-2.836 10.226 3.677 11.782 10.324 13.294C18.167 117.333 18.21 118 19.85 118c.266 0 8.463 1.69 8.729-2.98.177-2.934-.355-7.602-1.462-7.469-2.526.356-10.68-1.823-11.078-2.09-.532-.355 1.773-6.757 3.102-10.714.975-2.935 4.741-15.117 5.583-17.385.443-1.245-2.127 11.827-3.678 24.632-.044.489-.664 5.468-.487 5.468 1.86 0 6.956.09 8.552.267 7.178.845 8.551 4.268 8.108 7.025-.797 4.802-18.255 2.579-18.167 3.201 0 0-3.013 13.605-1.33 14.45 1.463.756 21.048 8.937 25.213 10.537a.884.884 0 0 0 1.152-.533v-.045l2.659-7.647c.044-.089.133-.133.221-.089.045 0 .089.045.089.09l2.526 8.358c.044.222.221.4.398.489h1.108l21.756-4.713s-.088-8.626-.133-19.652c0-1.111-.177-5.202-.974-4.446-.798.756-18.965 3.157-20.959 2.312-4.21-1.778-3.102-6.18-1.64-8.003 1.684-2.09 23.13-3.112 23.219-4.668.354-6.758-.177-24.498-.532-22.364-.532 3.334-13.071 21.563-13.071 24.72s-.222 11.16-.222 11.16l20.604-1.6s6.913-2.402 7.533-6.403c.62-4.002-.133-5.78-.399-11.738-.177-3.78-5.494-26.499-7-32.946a22.36 22.36 0 0 1-.444-2.934c-.177-2.668-1.24-8.892-6.956-11.604-7.09-3.38-12.629-6.047-14.047-6.047-1.329 0-4.962 8.003-6.868 10.27-.842 1.023-.664 1.512-1.772 3.024-.576.8-1.64.933-2.437.4-.177-.133-.31-.311-.443-.49-.62-.888-1.152-1.867-1.64-2.845-.842-1.69-7.355-11.337-7.355-11.337s-15.243 4.09-17.724 5.824" transform="translate(305 44)"/>
            <path fill="url(#k)" d="M53.127 9.115s-13.913 5.201-14.888 5.957c-.974.756-2.835 3.602-2.835 3.602s-.975-.534-1.197.933c0 0-1.418-2.934-1.595-4.58-.177-1.644 0-5.868 2.659-8.67 2.658-2.8 8.02-6.49 11.343-6.001 3.323.489 4.741.889 6.824 2.979 2.082 2.09 3.855 2.712 4.475 3.023.62.311 3.013 2.045 3.412 5.29.399 3.246-.71 9.738-.71 9.738s.311-2.535-.708-1.734c-.71.533-1.728-1.779-2.038-3.157-.4-1.334-3.988-7.025-4.742-7.38z" transform="translate(305 44)"/>
            <path fill="#000" d="M362.78 88.683c-.089-.266 1.507.934-.354-.4-2.615-1.912-1.374-9.737-1.374-9.737-.975 2.045-2.659 3.646-4.741 4.446-3.323 1.245-4.343.312.797 3.29 5.052 2.935 2.437 3.958 2.083 7.826M372.971 116.338l6.913 26.277s-.045 4.668-1.418 5.38c-1.374.71-5.716 1.155-6.735 1.6-1.02.445-11.61 2.668-8.862-1.067.62-.845 14.976-5.869 8.551-11.16-6.425-5.29-5.272-12.627-2.17-17.695 3.1-5.069 2.436-9.382 2.436-9.382l1.285 6.047zM343.683 185.609s-5.982 31.834-2.88 44.55c4.696 19.296-2.083 45.394-2.083 57.932 0 8.137 3.19 30.634 3.412 39.793.044 2.757 2.038 8.092.576 9.337-.62.533-4.431-.712-6.514-1.69a2.818 2.818 0 0 1-1.595-2.845l1.24-5.424 1.773-7.203-12.407-116.488s-3.988-25.921-1.728-26.01c2.26-.089 20.25 8.048 20.206 8.048" opacity=".07"/>
            <path fill="#FFF" d="M338.01 142.793l23.44 2.934c.488.133.798.578.754 1.111l-.665 21.253c-.044.667-.443 1.556-1.063 1.378l-23.307-4.49a1.053 1.053 0 0 1-.753-1.023l-.089-2.312 2.57-.667c.665-.178 1.285-.533 1.817-.934.133-.089.221-.177.31-.31l.532-.801c.177-.222.221-.534.177-.845a29.494 29.494 0 0 0-.31-1.512c-.045-.133-.089-.266-.133-.355l-.576-1.245a2.596 2.596 0 0 0-1.285-1.29l-.355-.177-2.525-1.379.221-8.314c0-.578.488-1.022 1.064-1.022h.177z"/>
        </g>
    </g>
</svg>
