<svg xmlns="http://www.w3.org/2000/svg" width="270" height="272" viewBox="0 0 270 272">
    <defs>
        <linearGradient id="a" x1="50%" x2="50%" y1="0%" y2="100%">
            <stop offset="0%" stop-color="#FA6400"/>
            <stop offset="100%" stop-color="#E5AD58"/>
        </linearGradient>
        <linearGradient id="b" x1="50%" x2="50%" y1="0%" y2="100%">
            <stop offset="0%" stop-color="#FA6400"/>
            <stop offset="100%" stop-color="#E5AD58"/>
        </linearGradient>
        <linearGradient id="c" x1="0%" x2="100.085%" y1="49.968%" y2="49.968%">
            <stop offset="0%" stop-color="#F71D69"/>
            <stop offset="100%" stop-color="#F8C648"/>
        </linearGradient>
        <linearGradient id="d" x1="0%" y1="49.999%" y2="49.999%">
            <stop offset="0%" stop-color="#93FD94"/>
            <stop offset="100%" stop-color="#21C4C0"/>
        </linearGradient>
        <linearGradient id="e" x1="0%" y1="50.033%" y2="50.033%">
            <stop offset="0%" stop-color="#93FD94"/>
            <stop offset="100%" stop-color="#21C4C0"/>
        </linearGradient>
        <linearGradient id="f" x1="0%" y1="50.037%" y2="50.037%">
            <stop offset="0%" stop-color="#93FD94"/>
            <stop offset="100%" stop-color="#21C4C0"/>
        </linearGradient>
        <linearGradient id="g" x1="0%" x2="99.698%" y1="50.002%" y2="50.002%">
            <stop offset="0%" stop-color="#93FD94"/>
            <stop offset="100%" stop-color="#21C4C0"/>
        </linearGradient>
    </defs>
    <g fill="none" fill-rule="nonzero">
        <path fill="url(#a)" d="M10.023 220.354h250.244s9.365-.516 9.365-11.878v-22.552H.164v27.372c1.315 4.304 5.258 7.23 9.695 7.058"/>
        <path fill="url(#b)" d="M.164 15.494L0 194.532l269.632-2.583V10.33S271.275 0 260.76 0H10.352S-.986 0 .164 15.494"/>
        <path fill="#6D7278" d="M113.538 268.385v-49.752l39.434 1.721v43.727z"/>
        <path fill="#6D7278" d="M50.936 263.392h163.817l.164 8.608H50.936z"/>
        <path fill="#FFF" d="M132.434 198.147c4.436 0 7.887 3.615 7.887 8.263s-3.451 8.263-7.887 8.263c-4.437 0-7.887-3.615-7.887-8.263s3.615-8.263 7.887-8.263"/>
        <path fill="#F8F8FF" d="M8.38 8.608h253.037v173.873H8.38z"/>
        <path fill="#FA5F5D" d="M21.032 17.56c2.136 0 3.943 1.893 3.943 4.131 0 2.238-1.807 4.132-3.943 4.132s-3.944-1.894-3.944-4.132c0-2.238 1.808-4.132 3.944-4.132"/>
        <path fill="#FDBC4E" d="M34.505 17.56c2.136 0 3.943 1.893 3.943 4.131 0 2.238-1.807 4.132-3.943 4.132s-3.943-1.894-3.943-4.132c0-2.238 1.807-4.132 3.943-4.132"/>
        <path fill="#37CD58" d="M48.636 17.56c2.136 0 3.943 1.893 3.943 4.131 0 2.238-1.807 4.132-3.943 4.132s-3.944-1.894-3.944-4.132c0-2.238 1.808-4.132 3.944-4.132"/>
        <path fill="url(#c)" d="M103.68 47.858c-.165 2.238-1.972 3.96-4.108 3.788H51.1c-2.464 0-4.929-1.722-4.929-3.788v-7.747c0-2.065 2.3-3.96 4.93-3.96h48.306c2.136-.171 4.108 1.55 4.272 3.788v7.919z"/>
        <path fill="url(#d)" d="M220.34 99.16c-.165 2.41-2.137 4.303-4.437 4.131H51.1c-2.464 0-4.929-1.894-4.929-4.132V60.942c0-2.238 2.465-4.132 4.93-4.132h164.802c2.3-.172 4.272 1.722 4.436 4.132v38.217z"/>
        <path fill="url(#e)" d="M100.393 131.868c0 2.238-1.807 4.132-3.943 4.132H51.1c-2.629 0-4.929-1.894-4.929-4.132v-21.002c0-2.238 2.465-4.132 4.93-4.132h45.02c2.136-.172 4.108 1.55 4.272 3.96v21.174z"/>
        <path fill="url(#f)" d="M159.545 131.868c0 2.238-1.808 4.132-3.944 4.132h-45.35c-2.628 0-4.928-1.894-4.928-4.132v-21.002c0-2.238 2.464-4.132 4.929-4.132h45.02c2.137-.172 4.108 1.55 4.273 3.96v21.174z"/>
        <path fill="url(#g)" d="M220.34 131.868c-.165 2.41-2.137 4.304-4.437 4.132h-45.02c-2.465.172-4.437-1.722-4.766-4.132v-21.002c.164-2.582 2.3-4.304 4.765-4.132h45.021c2.3-.172 4.436 1.722 4.6 4.132v21.002h-.164z"/>
        <path fill="#E9EDFB" d="M159.545 143.747c-.329.86-.986 1.377-1.808 1.55-.164 0-.164 0-.328-.69h-49.622c-.986.69-2.464 0-2.464-.86v-.689c0-.86 1.478-1.721 2.464-1.893h49.622c.821.172 1.314.86 1.479 1.549 0 .172 0 .172.492.344v.689h.165zM159.545 150.46c-.329.862-.986 1.55-1.808 1.722 0 0-.164 0-.164-.688h-49.786c-.986.688-2.464 0-2.464-1.033v-.689c0-.86 1.478-1.55 2.464-1.721h49.622c.821.172 1.643.86 1.971 1.721v.689h.165zM159.545 157.347c-.329 1.033-1.15 1.721-1.972 1.894v-.861h-49.786c-.821.516-1.807.344-2.3-.517-.164-.172-.164-.344-.164-.516v-.689c0-.86 1.478-1.377 2.464-1.721h49.622c.821.172 1.643.86 1.971 1.721l.165.689zM159.545 164.06c-.493 1.034-1.15 2.067-1.972 2.927h-49.786c-.986-.86-2.464-1.893-2.464-2.926v-.689c0-.86 1.478-1.894 2.464-1.55h49.622c.657-.171 1.314.345 1.479 1.034v.516l.492.172v.517h.165zM131.94 170.947c0 .86-.492 1.205-1.478 1.205h-22.84c-.985 0-2.3-.344-2.3-1.205v-.689c0-.86 1.315-1.55 2.3-1.55h22.84c.822 0 1.479.69 1.479 1.55v.689zM220.34 143.747c-.986.86-.822 1.55-1.808.86H168.91c-.821.69-1.643.173-1.643-.688l.493-.172v-.689c-.493-.86.165-1.721 1.15-1.893h49.622c.986.344.822 1.032 1.807 1.893v.689zM220.34 150.46c-.986.862-.822 1.722-1.808 1.034H168.91c-.985.688-1.643 0-1.15-1.033v-.689c-.493-.86.165-1.55 1.15-1.721h49.622c.986.344.822.86 1.807 1.721v.689zM220.34 157.347c-.986.86-.822 1.894-1.808 1.033H168.91c-.985.688-1.643 0-1.15-1.033v-.689c-.493-.86.165-1.377 1.15-1.721h49.622c.986.344.822.86 1.807 1.721v.689zM220.34 164.06c-.986.862-.822 2.067-1.808 2.927H168.91c-.985-1.033-1.643-1.893-1.15-2.926v-.689c-.328-.344-.328-1.033 0-1.377.329-.172.658-.344.986-.172h49.786c.986-.345.822.688 1.807 1.55v.688zM193.064 170.947c0 .86 0 1.205-.822 1.205H169.24c-.986 0-1.479-.344-1.479-1.205v-.689c0-.86.658-1.55 1.48-1.55h22.838c.986 0 .822.69.822 1.55l.164.689zM98.75 143.747c.657.86.329 1.55-.657.86H48.307c-.657.517-1.479.345-1.807-.172-.165-.172-.165-.344-.329-.688v-.689c.329-1.033 1.15-1.721 2.136-1.893H97.93c.985.344 1.314 1.032.657 1.893v.689h.164zM98.75 150.46c.657.862.329 1.722-.657 1.034H48.307c-.986.86-1.807 0-2.136-1.033v-.689c.164-.86 1.15-1.55 2.136-1.721H97.93c.985.344 1.314.86.657 1.721v.689h.164zM98.75 157.347c.657.86.329 1.894-.657 1.033H48.307c-.986.86-1.807 0-2.136-1.033v-.689c.164-.86 1.15-1.377 2.136-1.721H97.93c.985.344 1.314.86.657 1.721v.689h.164zM83.962 161.823h14.13c.987-.345 1.315.688.658 1.55v.688c.657.86.329 2.066-.657 2.926H48.307c-.986-.688-1.643-1.721-2.136-2.926v-.689c.164-1.033 1.15-1.721 2.136-1.55h35.655M74.104 170.947c0 .86-.493 1.205-1.48 1.205H47.979c-.985 0-1.807-.344-1.807-1.205v-.689c.164-.86.986-1.55 1.807-1.55h24.647c.821 0 1.479.69 1.479 1.378v.861z"/>
    </g>
</svg>
