<svg xmlns="http://www.w3.org/2000/svg" width="661" height="543" viewBox="0 0 661 543">
    <defs>
        <linearGradient id="a" x1="84.607%" x2="-36.658%" y1="62.925%" y2="62.925%">
            <stop offset="0%" stop-color="#D5C0A2"/>
            <stop offset="100%" stop-color="#CCAC7C"/>
        </linearGradient>
        <linearGradient id="b" x1="84.607%" x2="-36.658%" y1="62.925%" y2="62.925%">
            <stop offset="0%" stop-color="#F6E5CB"/>
            <stop offset="100%" stop-color="#CCAC7C"/>
        </linearGradient>
        <linearGradient id="c" x1="84.607%" x2="-36.658%" y1="62.925%" y2="62.925%">
            <stop offset="0%" stop-color="#FEF2E1"/>
            <stop offset="100%" stop-color="#CCAC7C"/>
        </linearGradient>
        <linearGradient id="d" x1="84.607%" x2="-36.658%" y1="62.925%" y2="62.925%">
            <stop offset="0%" stop-color="#F3E3CB"/>
            <stop offset="100%" stop-color="#CCAC7C"/>
        </linearGradient>
    </defs>
    <g fill="none" fill-rule="evenodd">
        <path fill="#F8DCB2" d="M498.225 137.334c-.533-.388-1.799-.525-2.387-.642-2.448-.482-4.969-.692-7.464-.692-7.693.012-15.51.767-23.076 2.074-4.804.83-10.61 3.622-15.389 2.105-8.324-2.642-16.737-2.512-24.635 1.26-7.22 3.45-12.702 10-15.901 17.078-.483 1.069-2.44 5.002-2.995 7.653a31.014 31.014 0 0 0-.67 1.641 82.965 82.965 0 0 0-1.59 4.777c-.208.684-.73 2.194-.11 2.486a45.46 45.46 0 0 0-2.597 5.652c-2.125 5.652-4.449 11.852-5.196 17.842a27.912 27.912 0 0 0-.03 6.671c.127 1.099.075 3.307.82 4.143 1.58 1.772 2.391-.71 2.213-1.89-1.36-9.007 1.267-17.465 4.38-25.93 2.014-5.475 5.322-10.484 9.028-15.02 2.999-3.67 6.216-6.562 10.327-8.996 5.028-2.977 10.403-5.383 15.728-7.797 3.503-1.588 7.01-3.134 10.61-4.502.8-.305 2.06-1.086 2.948-1.089 1.877-.006 4.538 1.379 6.35 1.894 5.965 1.696 12.005 3.867 18.17 4.733 3.953.556 7.657-.07 11.354-1.387.378-.134 1.012-.48 1.788-.974 2.745-1.056 5.342-2.385 7.603-4.303 1.302-1.104 2.485-2.532 3.563-3.839a2.01 2.01 0 0 0 .47-1.264c.244-.127.406-.277.443-.45.269-1.287-2.184-1.31-3.755-1.234"/>
        <path fill="#E5AD58" d="M488.98 170.66c-3.41-.745-7.177-.688-10.651-.627-18.634.254-36.932 9.076-48.84 23.172-10.138 12-12.926 26.92-14.929 42.002-.198 1.497-.283 2.985-.395 4.486-.024.322-.06.61-.099.88-.787.704-1.2 1.525-.734 2.427-1.735 3.797-3.203 7.69-4.463 11.706-3.707 11.82-7.477 23.865-5.155 36.294.543-6.84 1.685-13.834 3.05-20.562.078-.386.163-.77.251-1.151l.027-.12a44.965 44.965 0 0 1 1.875-6.026l.024-.064c.101-.259.208-.517.314-.774.219-.533.444-1.065.682-1.594.08-.18.158-.363.233-.546 1.112-2.726 1.581-5.798 2.578-8.618.238-.641.487-1.28.748-1.916l.047-.111c.706-1.71 1.485-3.4 2.31-5.072.448-.336.687-1.172 1.074-1.931.08-.15.704-1.147.89-1.722.486-.939.97-1.878 1.458-2.816l-.044.017 1.467-2.69.323-.589.524-.938a176.938 176.938 0 0 1 5.16-8.61c.642-1.009 2.174-2.456 2.468-3.588.01-.043.013-.082.02-.122 3.9-5.478 8.39-10.53 13.774-14.533-.651.704-2.035 3.091-2.4 3.564-1.12 1.447-2.335 2.794-3.554 4.158-2.185 2.443-4.317 4.963-6.212 7.628-3.466 4.874-6.455 10.003-9.282 15.236-.026.03-.056.06-.081.09-1.42 1.752-2.315 4.398-3.337 6.4 4.046-1.873 8.52-3.094 12.673-4.758 4.142-1.66 8.17-3.507 12.06-5.676 5.17-2.884 10.532-6.14 15.416-9.823 5.597-3.472 10.301-8.251 14.453-13.266 4.912-5.934 9.414-11.92 12.198-19.124 1.368-3.54 2.444-7.232 3.082-10.967.028-.162.063-.339.102-.522a35.926 35.926 0 0 0 1.726-3.958c.777-2.14 2.614-4.494-.83-5.246"/>
        <path fill="#F2F2F2" d="M660.712 459.282c9.635 62.253-224.035 102.859-425.16 74.521-201.126-28.338-293.393-139-197.419-197.964 95.974-58.965 612.943 61.19 622.579 123.443z" opacity=".6"/>
        <g transform="translate(-54 18)">
            <rect width="159" height="302" fill="#F2F2F2" rx="8"/>
            <circle cx="79" cy="268" r="15" fill="#FFF"/>
            <g fill="#FFF" transform="translate(64 16)">
                <circle cx="2" cy="2" r="2"/>
                <rect width="21" height="4" x="9" rx="2"/>
            </g>
            <g transform="translate(14 28)">
                <rect width="131" height="54" fill="#FFF" rx="4"/>
                <g fill="#DDE3E9" transform="translate(39 16.2)">
                    <rect width="73" height="8.1" rx="3"/>
                    <rect width="49" height="8.1" y="13.5" rx="3"/>
                </g>
            </g>
            <g transform="translate(14 90)">
                <rect width="131" height="42" fill="#FFF" rx="4"/>
                <g fill="#DDE3E9" transform="translate(39 12.6)">
                    <rect width="73" height="6.3" rx="3"/>
                    <rect width="49" height="6.3" y="10.5" rx="3"/>
                </g>
            </g>
            <g transform="translate(14 140)">
                <rect width="131" height="42" fill="#FFF" rx="4"/>
                <g fill="#DDE3E9" transform="translate(39 12.6)">
                    <rect width="73" height="6.3" rx="3"/>
                    <rect width="49" height="6.3" y="10.5" rx="3"/>
                </g>
            </g>
            <g transform="translate(14 190)">
                <rect width="131" height="42" fill="#FFF" rx="4"/>
                <g fill="#DDE3E9" transform="translate(39 12.6)">
                    <rect width="73" height="6.3" rx="3"/>
                    <rect width="49" height="6.3" y="10.5" rx="3"/>
                </g>
            </g>
        </g>
        <g transform="translate(-37 42)">
            <g fill="#F8DCB2">
                <path d="M12.14 218c-1.325 0-2.646.027-3.969.095-1.009.053-2.55-.156-3.403.473-.887.653-.826 1.99-.687 2.933.732 4.992 2.52 9.418 6.258 12.955 5.757 5.445 12.356 8.212 20.165 9.444 5.486.866 10.55-.336 14.588-4.237 2.95 5.476 5.189 11.536 6.312 17.652.554 3.018.723 6 .626 9.073-.063 1.968-.171 3.932-.382 5.89-.092.852-.526 2.14-.193 2.945.391.944 1.71 1.036 2.302.23.493-.67.403-1.987.504-2.78.168-1.318.323-2.637.434-3.96.18-2.144.314-4.293.305-6.445-.023-4.833-1.098-9.685-2.568-14.273-2.82-8.803-7.395-16.626-14.511-22.764-4.376-3.774-9.384-5.302-15.065-6.123-3.538-.51-7.133-1.108-10.716-1.108"/>
                <path d="M32.571 253c-14.299 0-23.929 11.524-28.482 23.502-1.717 4.514-2.12 9.472-2.78 14.212-.213 1.522-.134 3.84-.752 5.195-.224.492-.738.668-.492 1.338.149.405.44.654.879.734.899.166 2.17-.814 2.942-1.2 6.396-3.208 10.598-8.168 14.026-14.236 2.126-3.761 4.282-7.666 5.544-11.795.771-2.523 1.22-5.18 1.484-7.796.104-1.03.204-2.086.198-3.122-.006-1.03-.485-1.573-.829-2.468 4.771-1.806 10.157-2.298 14.99-.427 4.47 1.731 8.183 5.076 10.262 9.279.54 1.092.957 2.244 1.26 3.42.199.77.208 1.768.577 2.464.892 1.688 2.77.56 2.59-1.011-.503-4.381-3.01-8.78-6.213-11.826-4.04-3.842-9.517-6.263-15.204-6.263"/>
            </g>
            <rect width="159" height="302" x="48" fill="#DDE3E9" rx="8"/>
            <circle cx="127" cy="268" r="15" fill="#FFF"/>
            <g fill="#FFF" transform="translate(112 16)">
                <circle cx="2" cy="2" r="2"/>
                <rect width="21" height="4" x="9" rx="2"/>
            </g>
            <g transform="translate(62 28)">
                <rect width="131" height="54" fill="#FFF" rx="4"/>
                <g fill="#DDE3E9" transform="translate(9 16.2)">
                    <rect width="73" height="8.1" rx="3"/>
                    <rect width="49" height="8.1" y="13.5" rx="3"/>
                </g>
                <g transform="translate(110 20)">
                    <circle cx="7" cy="7" r="7" fill="#DDE3E9"/>
                    <circle cx="7" cy="7" r="3" fill="#F2F2F2"/>
                </g>
            </g>
            <g transform="translate(62 90)">
                <rect width="131" height="42" fill="#FFF" rx="4"/>
                <g fill="#DDE3E9" transform="translate(39 12.6)">
                    <rect width="73" height="6.3" rx="3"/>
                    <rect width="49" height="6.3" y="10.5" rx="3"/>
                </g>
                <circle cx="21" cy="21" r="12" fill="#C5CFD6"/>
            </g>
            <g transform="translate(62 140)">
                <rect width="131" height="42" fill="#FFF" rx="4"/>
                <g transform="translate(9 12.6)">
                    <rect width="73" height="6.3" fill="#DDE3E9" rx="3"/>
                    <rect width="49" height="6.3" y="10.5" fill="#AFB9C5" rx="3"/>
                </g>
                <g transform="translate(110 14)">
                    <circle cx="7" cy="7" r="7" fill="#DDE3E9"/>
                    <circle cx="7" cy="7" r="3" fill="#F2F2F2"/>
                </g>
            </g>
            <g transform="translate(62 190)">
                <rect width="131" height="42" fill="#FFF" rx="4"/>
                <g fill="#DDE3E9" transform="translate(39 12.6)">
                    <rect width="73" height="6.3" rx="3"/>
                    <rect width="49" height="6.3" y="10.5" rx="3"/>
                </g>
                <circle cx="21" cy="21" r="12" fill="#C5CFD6"/>
            </g>
        </g>
        <g transform="translate(78 66)">
            <rect width="335" height="346" fill="#F2F2F2" rx="8"/>
            <rect width="70" height="81" x="249" y="43" fill="#FFF" rx="8"/>
            <g fill="#DDE3E9" transform="translate(259 58)">
                <circle cx="25" cy="16" r="16"/>
                <rect width="50" height="6" y="36" rx="3"/>
                <rect width="34" height="6" x="8" y="46" rx="3"/>
            </g>
            <path fill="#C5CFD6" d="M8 0h319a8 8 0 0 1 8 8v19H0V8a8 8 0 0 1 8-8z"/>
            <g fill="#F2F2F2" transform="translate(9 10)">
                <circle cx="4" cy="4" r="4"/>
                <circle cx="16" cy="4" r="4"/>
                <circle cx="28" cy="4" r="4"/>
            </g>
            <g transform="translate(249 132)">
                <rect width="70" height="194" fill="#FFF" rx="8"/>
                <g transform="translate(18 18)">
                    <rect width="34" height="26" fill="#DDE3E9" rx="4"/>
                    <rect width="34" height="25" y="34" fill="#AFB9C5" rx="4"/>
                    <rect width="34" height="25" y="67" fill="#DDE3E9" rx="4"/>
                    <rect width="34" height="25" y="133" fill="#DDE3E9" rx="4"/>
                    <rect width="34" height="25" y="100" fill="#C5CFD6" rx="4"/>
                </g>
            </g>
            <g transform="translate(16 44)">
                <rect width="225" height="47" fill="#FFF" rx="4"/>
                <g fill="#DDE3E9" transform="translate(9 14.1)">
                    <rect width="167" height="7.05" rx="3"/>
                    <rect width="112.096" height="7.05" y="11.75" rx="3"/>
                </g>
                <g transform="translate(193.954 16.5)">
                    <circle cx="7" cy="7" r="7" fill="#DDE3E9"/>
                    <circle cx="7" cy="7" r="3" fill="#F2F2F2"/>
                </g>
            </g>
            <g transform="translate(16 99)">
                <rect width="225" height="39" fill="#FFF" rx="4"/>
                <g fill="#DDE3E9" transform="translate(9 11.7)">
                    <rect width="167" height="5.85" rx="2.925"/>
                    <rect width="112.096" height="5.85" y="9.75" rx="2.925"/>
                </g>
                <g transform="translate(193.954 12.5)">
                    <circle cx="7" cy="7" r="7" fill="#DDE3E9"/>
                    <circle cx="7" cy="7" r="3" fill="#F2F2F2"/>
                </g>
            </g>
            <g transform="translate(16 146)">
                <rect width="225" height="39" fill="#FFF" rx="4"/>
                <g fill="#DDE3E9" transform="translate(9 11.7)">
                    <rect width="167" height="5.85" rx="2.925"/>
                    <rect width="112.096" height="5.85" y="9.75" rx="2.925"/>
                </g>
                <g transform="translate(193.954 12.5)">
                    <circle cx="7" cy="7" r="7" fill="#DDE3E9"/>
                    <circle cx="7" cy="7" r="3" fill="#AFB9C5"/>
                </g>
            </g>
            <g transform="translate(16 287)">
                <rect width="225" height="39" fill="#FFF" rx="4"/>
                <g fill="#DDE3E9" transform="translate(9 11.7)">
                    <rect width="167" height="5.85" rx="2.925"/>
                    <rect width="112.096" height="5.85" y="9.75" rx="2.925"/>
                </g>
                <g transform="translate(193.954 12.5)">
                    <circle cx="7" cy="7" r="7" fill="#DDE3E9"/>
                    <circle cx="7" cy="7" r="3" fill="#F2F2F2"/>
                </g>
            </g>
            <g transform="translate(16 240)">
                <rect width="225" height="39" fill="#FFF" rx="4"/>
                <g fill="#DDE3E9" transform="translate(9 11.7)">
                    <rect width="167" height="5.85" rx="2.925"/>
                    <rect width="112.096" height="5.85" y="9.75" rx="2.925"/>
                </g>
                <g transform="translate(193.954 12.5)">
                    <circle cx="7" cy="7" r="7" fill="#DDE3E9"/>
                    <circle cx="7" cy="7" r="3" fill="#F2F2F2"/>
                </g>
            </g>
            <g transform="translate(16 193)">
                <rect width="225" height="39" fill="#FFF" rx="4"/>
                <g fill="#DDE3E9" transform="translate(9 11.7)">
                    <rect width="167" height="5.85" rx="2.925"/>
                    <rect width="112.096" height="5.85" y="9.75" rx="2.925"/>
                </g>
                <g transform="translate(193.954 12.5)">
                    <circle cx="7" cy="7" r="7" fill="#DDE3E9"/>
                    <circle cx="7" cy="7" r="3" fill="#F2F2F2"/>
                </g>
            </g>
        </g>
        <path fill="#FCDBAA" d="M495.986 231.376c-3.945-2.675-9.19-3.376-13.91-3.376-18.436 0-35.765 6.84-50.735 17.032-8.203 5.584-15.54 12.696-22.02 20.1-3.739 4.275-7.073 8.898-9.434 14.041-1.593 3.471-2.686 7.088-3.427 10.818-.903 4.546-1.62 9.184-1.945 13.806-.128 1.82-1.185 11.477 1.84 11.64a4.177 4.177 0 0 0-.002.67c-6.57 10.273-10.63 22.313-14.395 33.728-3.275 9.934-6.194 19.951-8.088 30.228a329.391 329.391 0 0 0-4.912 40.987c-.167 2.949-.282 5.9-.381 8.853-.084 2.52-.169 5.038-.252 7.558-.092 2.823-.589 6.073-.14 8.88.39 2.443 2.506 2.073 2.6-.359.113-2.937.094-5.88.223-8.82.17-3.9.347-7.801.538-11.701 1.329-27.092 6.314-53.786 15.515-79.377 3.724-10.356 7.99-20.16 13.474-29.74 4.821-8.422 10.62-16.577 16.549-24.171 5.761-7.38 11.752-14.59 18.811-20.843 5.73-5.074 12.031-9.495 18.509-13.608 8.227-5.224 16.439-10.32 25.351-14.331 4.633-2.084 9.353-3.95 14.022-5.95.84-.36 1.74-.71 2.548-1.126 2.695-1.39 1.808-3.483-.34-4.94"/>
        <path fill="#F8DCB2" d="M420.818 324c7.477 0 14.13.972 21.02 3.943 5.947 2.565 11.367 5.96 16.629 9.656 7.401 5.199 13.231 11.25 17.312 19.266 2.438 4.79 4.227 11.566 2.59 16.79-1.93 6.152-7.225 11.284-14.2 10.2-4.313-.67-8.266-3.525-11.544-6.212-3.922-3.215-7.06-7.08-9.653-11.373-4.228-7.003-6.712-14.92-10.304-22.237-1.704-3.473-3.351-6.97-5.393-10.27-1.01-1.635-2.086-3.254-3.619-4.469-.82-.65-4.278-1.774-2.956-3.233-19.39.254-36.568 15.146-40.29 33.58-.347 1.718-.618 3.45-.905 5.179-.18 1.091-.107 5.117-1.083 5.814-2.152 1.538-1.248-3.135-1.155-3.808.239-1.739.493-3.476.76-5.21 1.454-9.435 5.654-18.205 12.658-24.933C398.695 328.99 409.5 324 420.818 324"/>
        <g transform="translate(327)">
            <rect width="6" height="25" y="32" fill="#DDE3E9" rx="3"/>
            <rect width="6" height="41" x="14" y="16" fill="#DDE3E9" rx="3"/>
            <rect width="6" height="49" x="28" y="8" fill="#DDE3E9" rx="3"/>
            <rect width="6" height="41" x="42" y="16" fill="#DDE3E9" rx="3"/>
            <rect width="6" height="57" x="56" fill="#C5CFD6" rx="3"/>
        </g>
        <path fill="#F2F2F2" d="M486.766 302.179a10.507 10.507 0 0 1-7.67 3.321c-5.818 0-10.534-4.701-10.534-10.5s4.716-10.5 10.533-10.5V265C462.545 265 449 278.503 449 295s13.546 30 30.095 30c8.693 0 16.55-3.666 21.905-9.498l-14.234-13.323z"/>
        <path fill="#AFB9C5" d="M479 265v19.5c5.799 0 10.5 4.701 10.5 10.5H509c0-16.497-13.503-30-30-30z"/>
        <path fill="#C5CFD6" d="M489.097 295c0 3.407-1.605 6.435-4.097 8.39L497.262 319c7.137-5.588 11.738-14.25 11.738-24h-19.903z"/>
        <g>
            <path fill="#F2F2F2" d="M296.051 39.504a8.095 8.095 0 0 1-5.9 2.546c-4.476 0-8.103-3.604-8.103-8.05 0-4.446 3.627-8.05 8.102-8.05V11C277.42 11 267 21.352 267 34s10.42 23 23.15 23c6.687 0 12.73-2.81 16.85-7.282l-10.949-10.214z"/>
            <path fill="#AFB9C5" d="M290 11v14.95a8.05 8.05 0 0 1 8.05 8.05H313c0-12.648-10.352-23-23-23z"/>
            <path fill="#C5CFD6" d="M298.073 34A7.98 7.98 0 0 1 295 40.293L304.196 52C309.55 47.809 313 41.312 313 34h-14.927z"/>
        </g>
        <g transform="matrix(-1 0 0 1 480 388)">
            <path fill="#C5CFD6" d="M71.007 76.986l-.014.032c.006-.01.014-.05.014-.032"/>
            <path fill="#C5CFD6" d="M70.998 77.001l-.002.01c0-.01.018-.04.002-.01"/>
            <path fill="#C5CFD6" d="M71.067 76.832c-.014.04-.032.078-.048.118l.024-.056c-.208.52-.076.182.024-.062"/>
            <path fill="#C5CFD6" d="M71.022 76.953l-.024.056c-.058.112.024-.056.024-.056M71 77.001v-.002zM70.999 77.002l.002-.004-.002.004M70.99 77.016c-.012.024.056-.092 0 0"/>
            <path fill="#C5CFD6" d="M70.998 77.002l.004-.004c-.002.002-.002.004-.004.004"/>
            <rect width="142" height="94" fill="#DDE3E9" rx="4"/>
            <path fill="#AFB9C5" d="M52.726 27L11.67 94h82.11z"/>
            <path fill="#C5CFD6" d="M95.056 44.946L58.76 94h72.59z"/>
            <circle cx="110.5" cy="31.5" r="13.5" fill="#FFF"/>
        </g>
        <g>
            <g transform="matrix(-1 0 0 1 651 108)">
                <circle cx="164.913" cy="146.989" r="1" stroke="#C1272D" stroke-width=".873"/>
                <g fill="#A6762E" fill-rule="nonzero">
                    <path d="M60.916 379.456c-3.305.647-14.84-2.911-16.784-4.723-.648-.582-1.167-2.264-1.685-2.976-.454-2.264-1.555-1.1-2.657-1.293-3.305-.712-12.248-3.041-16.46-.777-.778 1.747-.843 3.429-1.361 4.4-1.102 4.399-1.815 8.928-2.268 13.456-.324 2.782 1.684 5.24 4.406 5.564h.13c.907.065 1.88 0 2.851-.13 7.129-1.746 21.58-2.199 27.153-4.399 9.332-2.458 14.646-7.375 6.675-9.122zM171.797 384.697c-3.24.84-15.035-2.006-17.044-3.688-.713-.518-1.296-2.135-1.88-2.847-.582-2.2-1.62-1.035-2.721-1.164-3.37-.518-12.443-2.33-16.525.194-.713 1.747-.583 3.493-1.037 4.464-.778 4.464-1.296 9.057-1.426 13.586-.13 2.782 2.01 5.111 4.796 5.305h.129c.908.065 1.88-.065 2.787-.259 6.999-2.2 21.385-3.493 26.829-6.081 9.137-3.04 14.192-8.281 6.092-9.51z"/>
                </g>
                <path fill="url(#a)" fill-rule="nonzero" d="M22.94 369.817c5.639.776 19.183.97 19.183.97s.842-6.599 4.99-19.28c4.212-12.874 25.403-53.244 25.403-53.244 4.342-6.6 8.878-20.25 8.878-20.25l6.351-52.274s33.504 52.21 33.05 64.049c-.453 11.839 7.842 58.161 7.842 58.161.842 6.923 4.99 29.825 4.99 29.825 6.221-.776 12.507-.906 18.793-.517-.842-9.51-4.277-48.522-4.277-48.522s-2.139-30.278-2.592-48.716c-.454-18.439-13.61-57.321-22.487-75.112a76.626 76.626 0 0 1-2.917-9.252L41.8 205.554c1.75 4.981 3.175 10.027 4.212 15.203 4.601 23.097 7.842 61.914 7.842 61.914-12.249 13.845-19.96 39.918-19.96 39.918-4.99 15.656-10.952 47.228-10.952 47.228z"/>
                <path fill="url(#b)" fill-rule="nonzero" d="M84.468 19.797c-12.053-2.264-24.431 2.006-24.431 2.006l-2.074.646-12.831 16.433 11.86-3.17c3.174-1.1 9.396-2.782 12.247-2.588 2.139-.13 7.193.906 9.591-1.035 1.815-.84 2.139-2.329 5.833-5.952 2.657-2.911 1.879-3.752 2.916-4.14 1.36-.583.194-1.941-3.11-2.2z" transform="translate(25.57 29.645)"/>
                <path fill="#ECF0F4" stroke="#A6ABB2" stroke-width="3" d="M157.356 61.983L123.818 99.82a4 4 0 0 1-5.822.175L94.828 76.828a4 4 0 0 1 0-5.656l34.5-34.5a4 4 0 0 1 5.492-.154l22.207 19.828a4 4 0 0 1 .33 5.637z"/>
                <path fill="url(#c)" fill-rule="nonzero" d="M121.402 66.582c-.13-.647-2.463-.259-2.851-.84-2.528-3.56-5.509-8.088-11.86-10.223a27.553 27.553 0 0 0-5.573-1.164l-4.277 7.44c.519 1.294 1.231 2.523 2.009 3.623 2.592 3.493 8.036 8.216 18.016 6.922 2.333-.259 4.86-3.364 4.536-5.758z" transform="rotate(-87 137.54 64.807)"/>
                <path fill="url(#d)" fill-rule="nonzero" d="M37.939.323c-1.426 0-31.495 23.162-31.755 25.75-.064 1.358-.13 7.245-1.166 11.127C4.046 40.823 1.13 46 1.13 46s2.592 4.852 9.331 5.822c6.48.906 15.165-1.229 15.165-1.229s-2.01-12.81.453-14.233c2.139-1.23 2.787.065 10.175-6.146 7.387-6.21 4.99-21.867 4.795-22.902-.194-1.035-1.685-6.988-3.11-6.988z" transform="translate(25.57 29.645)"/>
                <path fill="#C3AD8D" d="M27 69l-1 7 25 6v-7z"/>
                <path fill="#D2BB98" fill-rule="nonzero" d="M98 124c-9.785-8.863-16.152-22.154-19.263-29.077-3.11-6.922-8.1-8.863-10.044-9.64-.972-.387-6.351-1.875-10.369-3.04l29.162-18.309c3.953-7.44-3.823-11.904-3.823-11.904l-33.18 16.433v11.192l-10.758-1.747-12.831-2.523c-3.953-.905-7.971-1.552-11.989-1.876-1.685-.13-3.37.065-4.99.647l-.842.324c-2.01.711-3.694 2.135-4.666 4.075-2.074 4.53-3.5 9.381-4.148 14.298-1.231 7.958 4.925 26.008 11.211 39.141 2.722 5.564 13.35 34.16 16.007 41.341 12.961 30.019 13.868 32.348 13.868 32.348 39.79-.388 78.543-9.252 78.543-9.252 1.21-2.2-10.753-20.01-35.888-53.431 12.422 5.566 20.422 8.566 24 9 3.755.455 6.755-1.211 9-5 5-5 14.781-24.974 15-39 .07-4.522-4.313-12.833-5-11-12 32-20.77 34.44-29 27z"/>
                <path fill="#4C4A4A" fill-rule="nonzero" d="M26.116 31.327c.648-1.164 2.074-3.817 2.916-4.787 1.426-1.488 2.981-2.911 4.602-4.27 1.49-.906 5.184-2.782 6.61-3.558 5.054-1.553 11.794 0 16.72.258 4.47-.323 7.776 5.24 9.525 8.928 1.75 3.688-1.62 3.235-1.296 6.082.065.517-1.425 1.294-2.721 2.005-1.297.712-4.99 6.6-6.287 9.381-1.36-6.793-5.897 5.305-5.054 6.793-1.815 1.165-4.018 6.082-7.258 7.635-2.269-.97-6.48-4.723-12.119-3.688-.389-1.035-5.962-5.176-6.545-12.163-.454-2.07-.907-9.51.907-12.616z"/>
                <path fill="#000" fill-rule="nonzero" d="M43.29 61.864s5.054 4.529 8.1 4.4l-.778 3.816.195 5.5s-1.944-3.106-4.407-6.276c-1.555-2.2-2.657-4.723-3.11-7.44zM61.63 117.438s6.35 19.085 25.92 38.947c19.572 19.861 24.303 24.002 24.303 24.002s4.017 5.046 2.721 8.41c-1.296 3.364-9.85-7.893-29.032-16.627-10.952-4.981-14.71-13.586-19.765-25.62-6.351-15.203-7.777-18.438-8.62-23.872-2.138-14.233 4.472-5.24 4.472-5.24zM87.68 225.674s-9.267 19.991-11.924 29.76c-2.721 10.093-2.721 24.779-10.887 31.895-9.267 8.087-20.154 35.26-22.681 41.017-3.565 8.217-10.887 53.504-8.749 56.674 2.074 3.106 10.434-1.553 10.434-1.553s-3.046-11.515-.454-21.932c2.592-10.416 14.775-38.235 22.422-52.015 6.934-12.357 13.998-26.655 15.553-34.936 1.556-8.281 6.286-48.91 6.286-48.91z" opacity=".07"/>
                <path fill="#000" d="M25 45L15 22 38 6l29-6v22l-2 12-38 17z"/>
            </g>
        </g>
    </g>
</svg>
