<svg xmlns="http://www.w3.org/2000/svg" width="400" height="298" viewBox="0 0 400 298">
    <defs>
        <linearGradient id="a" x1="84.607%" x2="-36.658%" y1="62.925%" y2="62.925%">
            <stop offset="0%" stop-color="#E5AD58"/>
            <stop offset="100%" stop-color="#CCAC7C"/>
        </linearGradient>
        <linearGradient id="b" x1="84.607%" x2="-36.658%" y1="62.925%" y2="62.925%">
            <stop offset="0%" stop-color="#E5AD58"/>
            <stop offset="100%" stop-color="#CCAC7C"/>
        </linearGradient>
        <linearGradient id="c" x1="84.607%" x2="-36.658%" y1="62.925%" y2="62.925%">
            <stop offset="0%" stop-color="#E5AD58"/>
            <stop offset="100%" stop-color="#CCAC7C"/>
        </linearGradient>
        <linearGradient id="d" x1="84.607%" x2="-36.658%" y1="62.925%" y2="62.925%">
            <stop offset="0%" stop-color="#E5AD58"/>
            <stop offset="100%" stop-color="#CCAC7C"/>
        </linearGradient>
        <linearGradient id="e" x1="84.607%" x2="-36.658%" y1="62.925%" y2="62.925%">
            <stop offset="0%" stop-color="#E5AD58"/>
            <stop offset="100%" stop-color="#CCAC7C"/>
        </linearGradient>
        <linearGradient id="f" x1="84.607%" x2="-36.658%" y1="62.925%" y2="62.925%">
            <stop offset="0%" stop-color="#E5AD58"/>
            <stop offset="100%" stop-color="#CCAC7C"/>
        </linearGradient>
        <linearGradient id="g" x1="50%" x2="50%" y1="0%" y2="100%">
            <stop offset="0%" stop-color="#FA6400"/>
            <stop offset="100%" stop-color="#E5AD58"/>
        </linearGradient>
        <linearGradient id="h" x1="50%" x2="50%" y1="0%" y2="100%">
            <stop offset="0%" stop-color="#FA6400"/>
            <stop offset="100%" stop-color="#E5AD58"/>
        </linearGradient>
    </defs>
    <g fill="none" fill-rule="evenodd">
        <path fill="#F2F2F2" d="M6.968 131.74s-34.235-110.17 59.3-115.702c93.536-5.53 76.308 23.565 159.374 5.591 83.066-17.974 84.465-30.414 127.74-12.443 43.275 17.97 46.055 64.281 36.998 87.782-9.058 23.501-27.224 42.162-25.83 55.296 1.395 13.135 30.746 46.909 34.627 69.715 2.132 12.452-4.064 33.688-9.855 34.592-43.04 6.875-215.885-4.435-215.885-4.435L73.11 247.701l-53.702-7.313s1.838-30.802 1.66-55.156c-.184-24.955-14.099-53.492-14.099-53.492z"/>
        <path fill="#E5AD58" fill-rule="nonzero" d="M19.603 236.994S7.902 285.339 72.107 282.05c64.204-3.288 63.441-10.418 103.953 2.192 40.511 12.61 65.735 17.548 97.074 7.676 31.34-9.872 32.103-8.235 71.843-8.235s53.347-42.4 54.383-48.187c1.224-6.823-1.637-29.203-7.317-29.271-42.005-.512-302.18-2.69-322.691 2.985-17.625 4.87-38.806 21.05-48.994 25.36" opacity=".488"/>
        <g fill-rule="nonzero" transform="translate(0 15.778)">
            <path fill="#E5AD58" d="M27.28 178.78l39.658-16.204.682-162.2S38.367 2.234 26.853 13.321l.426 165.458z" opacity=".404"/>
            <path fill="#E5AD58" d="M26.853 13.322l.968 165.245-6.938 2.879s.99-7.518-.717-23.843c-1.569-15.215-17.688-52.136-18.9-66.243-.852-10-.379-50.814 9.595-62.93 9.207-11.18 15.992-15.108 15.992-15.108z" opacity=".404"/>
            <ellipse cx="47.104" cy="55.783" fill="#FFF" rx="8.316" ry="5.757" transform="rotate(-9.88 47.104 55.783)"/>
            <ellipse cx="56.53" cy="54.046" fill="#FFF" rx="6.785" ry="4.695" transform="rotate(-9.88 56.53 54.046)"/>
            <ellipse cx="9.573" cy="75.823" fill="#FFF" rx="8.316" ry="5.757" transform="rotate(-9.88 9.573 75.823)"/>
            <ellipse cx="17.722" cy="71.528" fill="#FFF" rx="6.785" ry="4.695" transform="rotate(-9.88 17.722 71.528)"/>
            <path fill="#FFF" d="M30.239 10.648l2.013-1.121.093-.047 1.254-.627 1.198-.542 1.945 166.55-4.17 1.732z"/>
            <path fill="#FFF" d="M14.951 136.96l-.465-1.57c-.072.056-.362-1.138-.388-1.16l-.533-1.279-.482-1.39 54.103-20.44.179 4.546L14.95 136.96zM1.791 94.878l-.153-.916c-.103-.269-.218-1.327-.308-1.578l-.221-1.749-.196-1.279 66.72-25.501-.2 4.478L1.79 94.878z"/>
        </g>
        <g fill-rule="nonzero">
            <path fill="#E5AD58" d="M182.281 171.062a13.85 13.85 0 0 0 2.725-6.397c.393-2.836 1.42-6.452 4.022-8.93 3.953-3.773 4.537-19.616 4.618-25.492.021-2.22.37-4.424 1.036-6.542 1.182-3.714 3.6-8.857 8.29-11.339 4.78-2.528 20.043-3.565 24.495.141 9.062 7.561 7.795 17.484 7.936 19.058.687 7.428.264 12.848 4.043 17.51 3.778 4.66 8.05 10.362 6.938 16.136-1.113 5.774 8.827 14.29-2.051 17.842-10.879 3.552-21.996 6.009-34.116 5.04-10.737-.852-25.42-2.596-28.307-9.7-1.432-3.553-.712-5.886.371-7.327z" opacity=".404"/>
            <path fill="url(#a)" d="M9.296 60.115c.504-.725 1.156-1.808 2.316-2.375s3.484-2.23 14.947 2.495c16.37 6.75 29.85-1.484 31.13-1.647 1.279-.162 12.84-3.786 12.52 3.787-.32 7.574-13.966 11.693-18.137 11.86-4.17.166-21.347 1.812-29.85-.657-8.503-2.47-11.74-5.727-12.316-6.537-.63-.887-2.733-3.873-.61-6.926z" transform="translate(175.693 110.021)"/>
            <path fill="url(#b)" d="M10.392 115.215h.815a2.652 2.652 0 0 0 2.7-2.695l-.069-3.859a1.092 1.092 0 0 0-.687-.994l-.268-.106a1.087 1.087 0 0 1-.243-1.894c.177-.117.367-.213.567-.285 1.795-.674 5.582-2.862 15.565-3.872 5.45-.55 8.247-.73 9.667-.78a1.092 1.092 0 0 0 1.01-1.391 1.092 1.092 0 0 0-1.176-.785c-3.501.427-15.966 1.932-20.043 2.879a24.068 24.068 0 0 0-6.823 2.866 3.177 3.177 0 0 0-1.471 2.324c-.027.325-.2.621-.469.806a5.74 5.74 0 0 1-1.313.665c-.674.226-.661 2.558-.53 4.503a2.802 2.802 0 0 0 2.768 2.618z" transform="translate(175.693 110.021)"/>
            <path fill="url(#c)" d="M70.844 115.215h-.584a2.866 2.866 0 0 1-2.921-2.916l.064-3.638c.007-.438.276-.83.682-.994l.269-.106a1.087 1.087 0 0 0 .243-1.89 2.644 2.644 0 0 0-.567-.29c-1.778-.673-5.544-2.86-15.424-3.871-5.39-.55-8.163-.73-9.57-.78a1.092 1.092 0 0 1-1.01-1.387 1.092 1.092 0 0 1 1.18-.789c3.485.427 15.817 1.932 19.835 2.879 2.385.6 4.662 1.566 6.75 2.866a3.181 3.181 0 0 1 1.454 2.324c.028.325.2.621.47.806.396.275.826.498 1.279.665.673.226.652 2.618.52 4.554a2.746 2.746 0 0 1-2.67 2.567z" transform="translate(175.693 110.021)"/>
            <path fill="url(#d)" d="M39.023 79.808l-.085 32.286a.768.768 0 0 1-.767.767H38a.768.768 0 0 0-.768.79l.137 5.45a2.503 2.503 0 0 0 2.46 2.438l1.706.026a2.559 2.559 0 0 0 2.606-2.66l-.196-5.302a.768.768 0 0 0-.768-.742.768.768 0 0 1-.768-.771l.09-33.11a.768.768 0 0 0-.776-.771h-1.958a.768.768 0 0 0-.763.802l.021.797z" transform="translate(175.693 110.021)"/>
            <path fill="url(#e)" d="M39.049 103.211s-26.085 10.503-30.2 13.987c-4.116 3.484-4.79 5.689-4.602 6.623 0 .098.158.17.359.217a2.294 2.294 0 0 1 1.675 2.282l-.093 5.492a1.557 1.557 0 0 1-1.553 1.527H1.693c-.85 0-1.543-.681-1.557-1.53l-.093-5.46a2.324 2.324 0 0 1 1.97-2.34h.051s1.023-4.128 2.606-5.544c1.582-1.416 4.358-4.576 15.279-9.326 10.92-4.75 19.092-7.745 19.092-7.745l.008 1.817z" transform="translate(175.693 110.021)"/>
            <path fill="url(#f)" d="M42.367 102.806a.853.853 0 0 0 .524.797c3.582 1.536 24.401 10.538 27.958 13.719 3.893 3.484 4.528 5.689 4.354 6.623-.039.213-.615.298-1.13.328a.853.853 0 0 0-.81.883l.093 5.825a2.529 2.529 0 0 0 2.529 2.49h.738a2.508 2.508 0 0 0 2.507-2.465l.098-5.803a.853.853 0 0 0-.73-.853l-.643-.107a.853.853 0 0 1-.7-.627c-.315-1.164-1.164-3.91-2.328-5.019-1.497-1.424-4.123-4.576-14.46-9.326-7.92-3.638-14.273-6.239-16.806-7.25a.853.853 0 0 0-1.19.81l-.004-.025z" transform="translate(175.693 110.021)"/>
        </g>
        <g fill-rule="nonzero">
            <path fill="#FFF" d="M75.04 237.629l.427-74.2h9.808v74.626zM301.514 162.107l.392 76.375h8.529l.188-76.064z"/>
            <path fill="#FFF" d="M45.19 154.473v8.956l293.39-.853V154.9z"/>
            <path fill="#E5AD58" d="M45.19 154.473l20.895-6.396 248.614.426 23.881 6.397z"/>
            <path fill="#F8F8FF" d="M178.443 151.996l4.917-2.994 22.644-.15-3.416 2.91z"/>
        </g>
        <path fill="#E5AD58" fill-rule="nonzero" d="M65.693 132.256s-3.706-.17-4.183 1.023c-.478 1.194.852 17.484 1.432 18.448.58.964 6.487 1.245 8.158 1.245 0 0 6.188-.55 6.49-.972.303-.422 4.5-17.267 3.126-19.518-1.373-2.252-14.81-.17-14.81-.17"/>
        <path fill="url(#g)" fill-rule="nonzero" d="M10.034 28.196s11.514.883 12.874.495c1.36-.388.913-3.838.913-3.838l5.723-.256s0 3.318-.388 3.71a5.403 5.403 0 0 0-.977 1.757c0 .196-2.418 14.307-2.418 14.307s-3.706.571-4.196.512c-.58-.073 1.544-11.672 1.544-12.478 0-.806 0-2.341-.584-2.341-.585 0-11.873.341-11.94-.921a2.102 2.102 0 0 0-.55-.938" transform="translate(51.173 107.89)"/>
        <path fill="#E5AD58" fill-rule="nonzero" d="M65.74 132.623s-3.211-2.256-4.917-2.461c-1.706-.205-3.693-.422-5.399-.69-1.705-.27-3.88-1.029-3.838-2.026.043-.998.248-1.476 1.25-2.069a6.763 6.763 0 0 1 2.802-1.036c.75-.068 8.452 1.932 11.663 6.712l1.279 1.57h-2.84z"/>
        <path fill="#BAC4F6" fill-rule="nonzero" d="M54.631 127.049s2.951-.038 4.567.486a25.893 25.893 0 0 1 3.668 1.706l4.831 3.365"/>
        <path stroke="#E5AD58" stroke-linecap="round" stroke-width=".75" d="M54.631 127.049s2.951-.038 4.567.486a25.893 25.893 0 0 1 3.668 1.706l4.831 3.365" opacity=".516"/>
        <path fill="#E5AD58" fill-rule="nonzero" d="M69.13 132.495s-3.736-5.075-5.19-6.504c-1.454-1.428-3.155-3.061-4.558-4.554-1.403-1.492-3.173-3.633-2.427-4.512.746-.878 1.28-1.475 2.64-1.279a6.448 6.448 0 0 1 2.964 1.096c.754.486 7.535 6.955 8.528 14.388l.977 1.505-2.934-.14z"/>
        <path stroke="#FFF" stroke-linecap="round" stroke-width=".75" d="M60.35 118.652s2.908 1.74 4.05 3.412c1.08 1.56 2.79 4.354 2.79 4.354l1.94 5.326"/>
        <path fill="#E5AD58" fill-rule="nonzero" d="M70.99 132.725s-4.363-9.471-5.178-11.343c-.814-1.872-4.145-4.691-4.882-6.602-.738-1.91-1.207-3.3-.427-4.35.78-1.048 2.79-1.918 4.064-1.279 1.207.589 2.776 2.38 3.45 3.288.533.717 4.107 13.582 3.812 16.55l.683 3.8-1.523-.064z" opacity=".261"/>
        <path stroke="#FFF" stroke-linecap="round" stroke-width=".75" d="M63.305 112.682s2.503 3.224 3.262 5.118c.853 2.132 1.706 6.196 1.595 5.543l2.614 8.772"/>
        <path fill="#E5AD58" fill-rule="nonzero" d="M68.597 132.674s-3.838-4.38-5.71-5.228c-1.872-.849-4-1.808-5.83-2.721-1.829-.913-4.025-2.46-3.654-3.39.371-.93.755-1.305 2.072-1.48a9.002 9.002 0 0 1 3.48.094c.853.222 8.87 5.066 10.93 10.819l.95 1.983-2.238-.077z" opacity=".261"/>
        <path stroke="#FFF" stroke-linecap="round" stroke-width=".75" d="M56.942 122.124s3.322 1.091 4.968 2.209a33.586 33.586 0 0 1 3.565 3.01l3.69 5.382"/>
        <path fill="#E5AD58" fill-rule="nonzero" d="M78.635 132.772s3.476-2.132 5.322-2.35c1.847-.217 3.988-.4 5.834-.66 1.847-.26 4.2-.982 4.154-1.937-.047-.955-.265-1.407-1.352-1.979a7.953 7.953 0 0 0-3.032-.989c-.815-.064-9.147 1.842-12.623 6.397l-1.403 1.5 3.1.018z"/>
        <path fill="#BAC4F6" fill-rule="nonzero" d="M90.661 127.446s-3.19-.039-4.942.464a29.82 29.82 0 0 0-3.966 1.62l-4.636 3.114"/>
        <path stroke="#E5AD58" stroke-linecap="round" stroke-width=".75" d="M90.661 127.446s-3.19-.039-4.942.464a29.82 29.82 0 0 0-3.966 1.62l-4.636 3.114" opacity=".516"/>
        <path fill="#E5AD58" fill-rule="nonzero" d="M74.972 132.648s4.039-4.844 5.612-6.209c1.574-1.364 3.412-2.925 4.934-4.35 1.523-1.424 3.433-3.466 2.623-4.31-.81-.845-1.382-1.412-2.857-1.233a7.565 7.565 0 0 0-3.207 1.045c-.815.46-8.154 6.644-9.228 13.74l-1.054 1.437 3.177-.12z"/>
        <path stroke="#FFF" stroke-linecap="round" stroke-width=".75" d="M84.473 119.416s-3.147 1.659-4.383 3.24c-1.169 1.493-3.015 4.158-3.015 4.158l-2.103 5.084"/>
        <path fill="#E5AD58" fill-rule="nonzero" d="M72.955 132.887s4.72-9.045 5.6-10.836c.878-1.79 4.486-4.469 5.283-6.303.797-1.833 1.305-3.155.469-4.153-.836-.998-3.015-1.834-4.397-1.237-1.304.563-2.985 2.273-3.735 3.139-.58.686-4.444 12.968-4.128 15.808l-.738 3.629 1.646-.047z" opacity=".261"/>
        <path fill="#E5AD58" fill-rule="nonzero" d="M72.507 132.772s.38-8.823 1.28-11.693c.61-1.902 1.207-5.117 2.004-6.93.797-1.812-.426-4.196-1.245-5.198-.819-1.002-2.985-.81-4.384-.218-1.305.563-2.055 2.384-2.222 3.357-.149.887 2.985 11.535 2.653 15.432l.268 5.305 1.646-.055z"/>
        <path stroke="#FFF" stroke-linecap="round" stroke-width=".75" d="M81.27 113.723s-2.707 3.079-3.53 4.883c-.93 2.042-1.855 5.919-1.706 5.279l-3.066 8.614"/>
        <path fill="#E5AD58" fill-rule="nonzero" d="M75.548 132.819s4.175-4.184 6.175-4.994c2-.81 4.328-1.706 6.307-2.597s4.354-2.35 3.953-3.237c-.4-.887-.815-1.245-2.243-1.415a11.015 11.015 0 0 0-3.766.09c-.938.212-9.594 4.835-11.825 10.332l-1.027 1.893 2.426-.072z" opacity=".261"/>
        <path stroke="#FFF" stroke-linecap="round" stroke-width=".75" d="M88.158 122.746s-3.6 1.045-5.378 2.107a35.586 35.586 0 0 0-3.838 2.874l-4.068 4.512M71.629 110.618s.72 7.561.303 9.595c-.175.853-.09 6.17-.09 6.17l-.149 5.916"/>
        <g fill-rule="nonzero" transform="translate(141.578 107.036)">
            <path fill="#FFF" d="M.038.213h46.857v36.785H.038z"/>
            <circle cx="22.473" cy="18.896" r="2.814" fill="#F5F5FC"/>
            <path fill="#FFF" d="M19.544 36.124s1.177 3.1-.167 3.97c-1.343.87-9.637 4.14-9.637 4.14s-.614.986.853 1.301c1.309.286 18.128.06 21.748 0 .517.036 1-.258 1.207-.733.085-.303-.021-.636-.665-.853-1.113-.401-5.207-2.631-6.998-3.595-.631-.341-.802-.998-.926-1.6-.204-.967-.358-2.038.325-2.242 1.066-.32-5.676.098-5.676.098"/>
        </g>
        <g fill-rule="nonzero" transform="translate(118.55 65.245)">
            <path fill="#E5AD58" d="M7.04 38.23l121.885-.196-.247-20.388L.132 18.64.055 38.23z" opacity=".404"/>
            <path fill="#E5AD58" d="M68.009 21.305v14.038l57.347-.196V21.501zM6.708 21.305v14.038l57.347-.196V21.501z"/>
            <path fill="#FFF" d="M6.712 24.687h2.99l.03 10.69-3.024-.034z"/>
            <path fill="#F5F5FC" d="M9.757 26.559h2.013l.072 8.771-2.11.047z"/>
            <path fill="#FFF" d="M60.337 24.606h1.757l.017 10.686-1.774-.03z"/>
            <path fill="#F5F5FC" d="M62.136 26.478h2.013l.073 8.771-2.111.043zM11.932 25.186h2.013l.072 10.17-2.11.051z"/>
            <path fill="#FFF" d="M13.902 27.629l1.032-.827 5.224 7.629-1.126.912zM38.286 35.292h12.571l-.064-1.411-12.507.068z"/>
            <path fill="#E9EDFA" d="M40.4 33.91h12.577l-.069-1.411-12.507.068z"/>
            <path fill="#FFF" d="M70.021 24.175h1.766l.017 11.25-1.787-.035z"/>
            <path fill="#F5F5FC" d="M71.825 26.571h2.009l.072 8.768-2.11.047z"/>
            <path fill="#FFF" d="M121.544 24.55h1.757l.017 10.687-1.774-.03z"/>
            <path fill="#F5F5FC" d="M123.292 26.269l2.094.021.081 8.861-2.14.03zM119.535 27.16h2.013l.081 8.072-2.145.026zM67.991 25.211h2.013l.073 10.17-2.111.052z"/>
            <path fill="#FFF" d="M88.849 27.659l1.032-.827 5.223 7.629-1.125.912zM80.328 35.322h12.576l-.068-1.412-12.508.069z"/>
            <path fill="#E9EDFA" d="M79.638 33.991h12.571l-.068-1.411-12.503.068z"/>
            <path fill="#E5AD58" d="M128.81 16.61L128.687.273h114.281l.281 39.036-114.34.934-.099-22.179" opacity=".404"/>
            <path fill="#E5AD58" d="M47.416 7.113s-1.1-.367-1.19-.64c-.09-.273-.456-1.833.273-1.833h6.234s1.007 1.65-.272 2.017c-1.28.366-.184 1.006.183 1.006s1.19 0 1.373.456c.183.457.17 10.073.17 10.073h-9.245V8.857a.99.99 0 0 1 1.007-1.006c1.01-.005 1.744-.277 1.467-.738z" opacity=".609"/>
            <path fill="#FFF" d="M46.307 10.81h6.486v4.021h-6.486z"/>
            <path fill="#E5AD58" d="M57.983 7.113s-1.1-.367-1.19-.64c-.09-.273-.456-1.833.273-1.833h6.235s1.006 1.65-.273 2.017c-1.28.366-.184 1.006.183 1.006s1.19 0 1.373.456c.184.457.17 10.073.17 10.073H55.51V8.857a.99.99 0 0 1 1.006-1.006c1.04-.005 1.757-.277 1.467-.738z"/>
            <path fill="#FFF" d="M56.887 10.81h6.486v4.021h-6.486z"/>
            <path fill="#E5AD58" d="M68.925 6.998s-1.1-.367-1.19-.64c-.089-.273-.456-1.833.274-1.833h6.234s1.006 1.65-.273 2.017c-1.28.366-.183 1.006.184 1.006.366 0 1.19 0 1.373.456.183.457.17 10.073.17 10.073h-9.245V8.742a.99.99 0 0 1 1.006-1.006c1.007-.005 1.74-.278 1.467-.738z" opacity=".609"/>
            <path fill="#FFF" d="M67.817 10.691h6.486v4.021h-6.486z"/>
            <path fill="url(#h)" d="M132.742 4.243h52.802V36.49h-52.802z" opacity=".505"/>
            <circle cx="191.198" cy="21.203" r="2.303" fill="#E5AD58"/>
            <path fill="#FFF" d="M168.004 25.424s-1.1-.366-1.19-.64c-.09-.272-.456-1.833.273-1.833h6.235s1.006 1.65-.273 2.017c-1.28.367-.183 1.006.183 1.006.367 0 1.19 0 1.374.457.183.456.17 10.072.17 10.072h-9.245v-9.339a.99.99 0 0 1 1.006-1.006c.998 0 1.732-.277 1.467-.734z"/>
            <path fill="#F5F5FC" d="M166.883 29.117h6.486v4.021h-6.486z"/>
        </g>
        <g>
            <g fill="#E5AD58">
                <path d="M44.958 272.748h-1.26l-8.656.084s-1.849 8.502-2.773 12.038c-.084.252-.252.842-.336 1.263-.168.589-.168 1.262-.168 1.852.168 3.198 1.428 5.976 4.285 7.407 3.194 1.6 5.63 3.115 8.908 0 3.277-3.114 3.781-5.05 2.521-10.354-1.26-5.303-1.68-12.122-2.521-12.29zM79.664 283.523c-5.714-1.852-9.496-9.597-9.496-9.597l-9.748-.589-.756 11.87c-.336 5.303.588 7.744 4.033 7.408 4.622-.421 23.362 1.346 26.303-.59 3.782-2.441-5.042-6.818-10.336-8.502z"/>
            </g>
            <path fill="#AFB9C5" d="M81.345 198.836c.42 3.957-2.521 24.834-2.521 28.79 0 3.957-8.74 46.3-8.74 46.3l-10-.336s2.269-62.547 2.017-65.578c-.252-3.03-12.773-39.312-12.773-39.312s-.925 9.596-.925 12.627c0 3.03-3.361 91.42-3.361 91.42h-10l-14.286-130.48-1.344-11.112 54.033 1.347s7.395 62.294 7.9 66.334"/>
            <path fill="#FCDBAA" d="M87.983 105.816l-4.538 3.872 1.429 6.061 1.933 2.694c-.168.253-.589-1.347 1.428-.168l3.95-.253 3.025-3.956s-1.597-18.268-8.655-30.979l1.428 22.729zm-5.546-24.16l-.42-2.525-1.093-.169 1.513 2.694zM44.37 14.395c2.52-1.094 12.269-5.724 13.697-4.714 2.185 1.852 3.782 4.293 4.454 7.071.42 1.936 1.933 4.293 2.185 3.957 1.092-1.095.84 3.03.84 4.293-.336 1.768-1.092 3.535-2.353 4.882-.84.674-1.68 2.947-2.1 4.715-.42 1.936-1.261 5.808-.505 7.408.84 1.936 11.093 20.54 20.252 37.04l-51.344-9.26-16.219 34.345 7.311 5.893-2.1 6.987-1.345.253s-1.177 2.778-2.437 1.515c-1.009-1.01-2.521-.505-3.11-.253-.167.085-.42.085-.588.085l-1.68-.337-1.093-9.26 15.799-48.741s18.991-17.089 20.084-17.762c1.092-.674 1.428-5.22.42-7.408a69.022 69.022 0 0 0-3.614-6.398c-.84-1.263-1.848-6.061-1.848-8.166 0-2.104 1.26-1.347 1.26-1.347s1.177-4.125 3.698-5.219c.924-.59 14.033-4.293 14.033-4.293L44.37 14.395z"/>
            <path fill="#C5CFD6" d="M24.118 49.835c-2.521 1.684-4.79 3.957-5.63 6.903-.84 2.947-15.127 30.474-15.799 32.494-.672 2.02-3.361 9.934-1.849 18.52 1.513 8.587 7.984 10.607 9.076 10.607.588 0-.504-4.462-.756-7.408-.084-1.094.84-3.788 1.092-4.882.42-1.6 1.765-1.179 1.765-2.61 0-2.694 6.722-12.038 9.244-17.257 2.52-5.22 7.226-6.145 8.067-8.418.84-2.273-7.06 46.804-7.06 46.804s-.167 8.587 1.43 9.429c1.512.757 19.58 7.66 23.781 9.26.42.168.924-.084 1.176-.505l2.69-7.66c0-.085.084-.17.168-.085.084 0 .084.084.084.084l2.52 8.334c.085.421.589.674 1.01.59l22.268-4.799s-.336-41.165.084-48.068c.336-6.734-.504-10.522.756-8.67 1.345 2.02 12.437 13.048 12.437 16.163-.084 1.767.757 3.367 2.185 4.377l-.588 15.153s6.302-6.987 6.89-10.944c.589-3.956.841-6.061-1.008-10.017-1.848-3.957-12.1-39.902-12.1-39.902s-1.009-4.378-8.572-6.65c-7.563-2.274-13.193-5.641-14.538-5.557-1.344.084-5.546 7.997-7.395 10.27-.84 1.01-.672 1.516-1.764 3.03-.589.759-1.681.927-2.437.338-.169-.169-.337-.253-.42-.505-.589-.926-1.093-1.852-1.597-2.778-.84-1.684-7.311-11.197-7.311-11.197s-15.378 3.873-17.9 5.556"/>
            <path fill="#000" d="M58.067 9.68s-13.025 4.378-15.378 6.483c-1.513 1.347-2.353 3.03-2.353 3.03s-1.26-.505-1.26 1.347c0 0-.505-1.262-.925-2.02-.42-.758-2.017-4.798-.504-7.997 1.513-3.2 3.361-5.051 4.118-5.556.756-.505 5.126-4.294 9.411-4.125 4.286.168 7.06 3.115 7.816 3.788.84.673 2.353 1.936 3.36 2.189 1.01.336 3.53 3.704 3.698 6.23.168 2.525-.756 7.996-.756 7.996s-.084-.757-.588-.336c-.504.42-1.933-2.273-2.353-4.21-.42-1.936-4.286-6.818-4.286-6.818z"/>
            <path fill="#000" fill-rule="nonzero" d="M62.353 45.205c-.084-.252 1.513.926-.336-.42-2.605-1.852-1.429-9.766-1.429-9.766a8.732 8.732 0 0 1-4.706 4.462c-3.361 1.263-4.37.337.757 3.283 5.126 2.946 2.437 3.957 2.1 7.829M29.328 82.414l-7.06 42.932s.085 7.66 1.43 8.755c1.344 1.094 5.882 1.852 6.89 2.61 1.009.757 11.933 4.377 9.076-1.768-.672-1.347-15.378-9.597-8.74-18.268 6.639-8.67 5.379-20.624 2.27-28.958-1.85-4.883-2.774-10.102-2.522-15.321l-1.344 10.018z" opacity=".07"/>
            <path fill="#000" fill-rule="nonzero" d="M41.176 140.246s-5.966 31.82-2.857 44.532c4.706 19.278-2.1 45.374-2.1 57.917 0 8.081 3.193 30.642 3.36 39.734.085 2.778 2.018 8.081.59 9.344-.673.505-4.455-.674-6.556-1.684-1.092-.505-1.764-1.684-1.596-2.862l1.26-5.472 1.765-7.155-12.353-116.423s-4.034-25.928-1.765-26.013c2.27-.083 20.252 8.082 20.252 8.082z" opacity=".07"/>
            <path fill="#FFF" fill-rule="nonzero" d="M30.252 81.656l19.328-5.893.84 54.718-17.647 6.735zM49.58 75.763l22.689 6.735v53.876L50.42 130.48z"/>
            <path fill="#E1E6FC" fill-rule="nonzero" d="M72.269 82.498l21.849-6.735-3.026 28.454-5.378 3.956a2.388 2.388 0 0 0-1.008 1.684l-.168 1.01c-.084.505 0 1.01.168 1.515l.924 2.273c.336.758.84 1.431 1.597 1.852l3.11 1.684-.169 11.533-17.9 6.65V82.498zM30.252 81.656L9.076 75.09l2.94 28.874 5.295 4.04c.504.422.924 1.01 1.008 1.684l.168 1.01c.084.506 0 1.095-.168 1.516l-.84 2.357c-.336.758-.84 1.431-1.597 1.852l-3.025 1.683.168 12.207 19.748 6.903-2.52-55.56zM49.16 75.932l.42-.169.336.084 1.008 54.803-.504-.169-.588.169z"/>
        </g>
    </g>
</svg>
