<svg xmlns="http://www.w3.org/2000/svg" width="88" height="88" viewBox="0 0 88 88">
    <defs>
        <linearGradient id="a" x1="50%" x2="50%" y1="0%" y2="100%">
            <stop offset="0%" stop-color="#FA6400"/>
            <stop offset="100%" stop-color="#E5AD58"/>
        </linearGradient>
    </defs>
    <path fill="url(#a)" fill-rule="nonzero" d="M75.586 31.707c3.516 1.107 6.38 3.174 8.594 6.201 2.213 3.028 3.32 6.43 3.32 10.205 0 4.688-1.66 8.692-4.98 12.012-1.758 1.758-3.776 3.06-6.055 3.906a34.226 34.226 0 0 1-2.54 10.84c-1.692 3.841-4.068 7.243-7.128 10.205a33.328 33.328 0 0 1-10.45 6.885c-3.906 1.628-8.007 2.474-12.304 2.539h-.488c-3.06-.065-5.68-1.204-7.862-3.418-2.18-2.214-3.271-4.85-3.271-7.91 0-3.125 1.107-5.81 3.32-8.057 2.214-2.246 4.883-3.369 8.008-3.369h.293c2.995.13 5.566 1.27 7.715 3.418 2.148 2.149 3.255 4.72 3.32 7.715 0 .716-.032 1.432-.098 2.148a24.741 24.741 0 0 0 6.934-4.882c5.078-4.948 7.617-10.905 7.617-17.872V39.227c0-6.967-2.539-12.924-7.617-17.872-5.078-4.947-11.214-7.421-18.408-7.421-7.194 0-13.33 2.474-18.408 7.421-5.013 4.948-7.52 10.905-7.52 17.872l.098 22.168c0 .976-.326 1.79-.977 2.44-.65.717-1.465 1.075-2.441 1.075-.26 0-.521-.032-.781-.097-3.256-.717-6.088-2.28-8.497-4.688C1.66 56.805 0 52.801 0 48.113c0-3.84 1.14-7.291 3.418-10.351a16.722 16.722 0 0 1 3.71-3.711 16.505 16.505 0 0 1 4.395-2.246 32.242 32.242 0 0 1 1.758-5.176c1.628-3.841 3.972-7.243 7.031-10.205a33.328 33.328 0 0 1 10.45-6.885A33.219 33.219 0 0 1 43.555 7c4.427 0 8.691.846 12.793 2.54 3.971 1.627 7.454 3.905 10.449 6.835 3.06 2.995 5.404 6.413 7.031 10.254a26.137 26.137 0 0 1 1.758 5.078zM1.88 53.899c.049.114.106.236.17.367a18.825 18.825 0 0 0-.17-.415v.048zm1.025 2.198c.082.146.187.317.318.512a16.132 16.132 0 0 1-.269-.463l-.049-.05zm6.324-.415l-.147-.147.147.147zm0 0l.244.244-.244-.244zm1.416.146V40.105A8.954 8.954 0 0 0 8.3 42.938c-.912 1.562-1.367 3.287-1.367 5.175 0 2.735 1.009 5.11 3.027 7.13.195.195.423.39.684.585zm.78 1.563a1.136 1.136 0 0 1-.292-.196c0 .065.032.114.097.147.066.032.13.049.196.049zm.83-25.464a5.828 5.828 0 0 0-.146.561c.065-.195.13-.398.196-.61l-.05.049zM13.77 64.03h-.098l-.977-.195c.586.13.912.195.977.195h.098zm3.125-2.588v-.048l-.098-22.168.098 22.168v.048zm6.835-47.021c.456-.326.782-.554.977-.684-.39.26-.716.489-.977.684zm7.751-4.296c-.168.006-.31.039-.426.097a.803.803 0 0 0 .244-.05.963.963 0 0 1 .19-.045l-.008-.002zm-3.307 1.488zm8.74 2.32l.684-.098h-.196c-.065 0-.162.016-.293.049l-.195.049zm24.56-.806a33.224 33.224 0 0 1 0 0zm-5.53-2.918a1.129 1.129 0 0 0 0 0zm-.268-.073zm5.799 2.99a32.32 32.32 0 0 1 4.736 3.834l.293.293-.293-.293a32.32 32.32 0 0 0-4.736-3.833zm5.029 4.127l.293.293-.293-.293zm1.294 1.318zm0 0zm.659.733c.26.39.52.716.781.976-.39-.455-.65-.781-.781-.976zM48.145 83.172c0-1.237-.424-2.295-1.27-3.174-.846-.879-1.888-1.318-3.125-1.318s-2.279.44-3.125 1.318c-.846.879-1.27 1.937-1.27 3.174 0 1.172.424 2.197 1.27 3.076.846.879 1.888 1.318 3.125 1.318h.195a4.327 4.327 0 0 0 2.979-1.367c.814-.846 1.22-1.855 1.22-3.027zm.78-.098v-.195.195zm0 0v.88-.88zm4.932 3.174l.05-.146-.05.146zm0 0l-.048.147c.195-.066.358-.13.488-.196a.803.803 0 0 0-.244.049.613.613 0 0 0-.244.147l.048-.147zm12.354-1.709l-.586.586c.065-.065.179-.163.342-.293.163-.13.244-.228.244-.293zm0 0l.586-.586c-.195.26-.39.456-.586.586zm4.102-21.582v.684-.684zm0 0V50.75v12.207zm0-12.207V39.08v11.67zm0-11.67v-.44.44zm2.514 36.182zm0 0c.114-.228.22-.456.318-.684.05-.1.1-.22.15-.36.01.013-.017.062-.053.116a.475.475 0 0 0-.097.244c-.098.228-.204.456-.318.684zm.468-1.043l.045-.13c0 .03-.007.062-.02.098l-.025.032zm-.468-47.98zm0 0c.114.227.22.455.318.683.065.13.162.358.293.683a5.358 5.358 0 0 0-.293-.683 12.828 12.828 0 0 0-.318-.684zm3.491 12.524zm0 0zm.66 18.042zm0 0c.406-.293.789-.619 1.147-.977 0-.032.008-.057.024-.073-.016.016-.024.04-.024.073-.358.358-.74.684-1.147.977zm.561-1.563c2.018-2.018 3.027-4.394 3.027-7.129 0-1.953-.488-3.743-1.464-5.37-.651-1.108-1.53-2.084-2.637-2.93v16.406c.39-.326.749-.651 1.074-.977zm8.496-11.914a3.027 3.027 0 0 0-.195-.586l.195.586zm-.913-2.354c.06.1.137.266.23.499-.066-.065-.114-.18-.147-.342a.59.59 0 0 0-.062-.185l-.02.028zm.767 12.242a1.047 1.047 0 0 0-.05.268c.033-.162.066-.3.099-.415l-.05.147z" transform="translate(0 -7)"/>
</svg>
