<svg xmlns="http://www.w3.org/2000/svg" width="76" height="101" viewBox="0 0 76 101">
    <defs>
        <linearGradient id="a" x1="50%" x2="50%" y1="0%" y2="100%">
            <stop offset="0%" stop-color="#FA6400"/>
            <stop offset="100%" stop-color="#E5AD58"/>
        </linearGradient>
    </defs>
    <path fill="url(#a)" fill-rule="nonzero" d="M72.95 23.742c1.301 1.302 1.952 2.93 1.952 4.883v52.344c0 1.953-.667 3.613-2.002 4.98C71.566 87.316 69.922 88 67.97 88h-5.567v5.469c0 1.953-.683 3.613-2.05 4.98-1.368 1.367-2.995 2.051-4.883 2.051H7.03c-1.888 0-3.532-.684-4.931-2.05C.7 97.081 0 95.421 0 93.468V20.03C0 18.143.7 16.5 2.1 15.1 3.5 13.7 5.143 13 7.03 13H12.5V7.531c0-1.953.7-3.613 2.1-4.98C16 1.184 17.676.5 19.629.5H47.07c.977 0 1.92.195 2.832.586.13.065.228.13.293.195.065 0 .196.065.39.196.522.325 1.01.683 1.466 1.074l20.898 21.191zm-22.266-12.5V24.72h13.379l-13.38-13.477zM55.37 93.47V88H19.63c-1.953 0-3.63-.684-5.03-2.05-1.4-1.368-2.099-3.028-2.099-4.981V20.03H7.031V93.47h48.34zm12.5-12.5V31.75h-17.09c-1.953 0-3.63-.684-5.029-2.05-1.4-1.368-2.1-3.028-2.1-4.981V7.53h-24.12V80.97h48.34zM48.926 44.055c-.651.65-1.465.976-2.442.976H28.516c-.977 0-1.807-.342-2.49-1.025-.684-.684-1.026-1.514-1.026-2.49 0-.977.342-1.807 1.025-2.49.684-.684 1.514-1.026 2.49-1.026h17.97c.976 0 1.806.342 2.49 1.025.683.684 1.025 1.514 1.025 2.49 0 .977-.358 1.824-1.074 2.54zm12.5 12.5c-.651.65-1.465.976-2.442.976H28.516c-.977 0-1.807-.342-2.49-1.025-.684-.684-1.026-1.514-1.026-2.49 0-.977.342-1.807 1.025-2.49.684-.684 1.514-1.026 2.49-1.026h30.47c.976 0 1.806.342 2.49 1.025.683.684 1.025 1.514 1.025 2.49 0 .977-.358 1.824-1.074 2.54zm-6.25 12.5c-.651.65-1.465.976-2.442.976H28.516c-.977 0-1.807-.342-2.49-1.025-.684-.684-1.026-1.514-1.026-2.49 0-.977.342-1.807 1.025-2.49.684-.684 1.514-1.026 2.49-1.026h24.22c.976 0 1.806.342 2.49 1.025.683.684 1.025 1.514 1.025 2.49 0 .977-.358 1.824-1.074 2.54z" transform="translate(.5)"/>
</svg>
