<svg xmlns="http://www.w3.org/2000/svg" width="79" height="79" viewBox="0 0 79 79">
    <defs>
        <linearGradient id="a" x1="50%" x2="50%" y1="0%" y2="100%">
            <stop offset="0%" stop-color="#FA6400"/>
            <stop offset="100%" stop-color="#E5AD58"/>
        </linearGradient>
    </defs>
    <path fill="url(#a)" fill-rule="nonzero" d="M75.826 79H3.174c-.882 0-1.631-.308-2.248-.925A3.056 3.056 0 0 1 0 75.83V3.171C0 2.29.309 1.54.926.925 1.543.308 2.292 0 3.174 0c.882 0 1.631.308 2.248.925.618.616.926 1.365.926 2.246v69.488h69.478c.882 0 1.631.308 2.248.925.617.616.926 1.365.926 2.245 0 .881-.309 1.63-.926 2.246-.617.617-1.366.925-2.248.925zm-47.73-19c-1.122 0-2.009-.471-2.66-1.414l-13.92-22.088c-.473-.766-.62-1.576-.443-2.43a2.992 2.992 0 0 1 1.374-1.988 3.123 3.123 0 0 1 2.394-.442c.857.177 1.522.619 1.995 1.326l9.93 16.08 4.08-15.639c.236-.942.798-1.62 1.684-2.032l16.138-7.775c.768-.353 1.537-.427 2.305-.22.769.205 1.39.662 1.862 1.369l8.07 13.076 11.88-35.607A3.3 3.3 0 0 1 74.383.361c.768-.413 1.566-.471 2.394-.177a3.305 3.305 0 0 1 1.862 1.59c.414.766.473 1.561.177 2.386l-14.01 42.145c-.413 1.296-1.3 2.017-2.66 2.165-1.359.147-2.393-.339-3.103-1.458L48.845 30.578l-12.147 5.831L31.2 57.614c-.354 1.355-1.212 2.12-2.571 2.298a1.679 1.679 0 0 1-.532.088z"/>
</svg>
