<svg xmlns="http://www.w3.org/2000/svg" width="227" height="160" viewBox="0 0 227 160">
    <defs>
        <linearGradient id="a" x1="50%" x2="50%" y1="0%" y2="100%">
            <stop offset="0%" stop-color="#E5AD58"/>
            <stop offset="100%" stop-color="#E5AD58"/>
        </linearGradient>
        <linearGradient id="b" x1="50%" x2="50%" y1="0%" y2="100%">
            <stop offset="0%" stop-color="#FA6400"/>
            <stop offset="100%" stop-color="#E5AD58"/>
        </linearGradient>
        <linearGradient id="c" x1="50%" x2="50%" y1="0%" y2="100%">
            <stop offset="0%" stop-color="#FA6400"/>
            <stop offset="100%" stop-color="#E5AD58"/>
        </linearGradient>
        <linearGradient id="d" x1="0%" x2="100.085%" y1="49.968%" y2="49.968%">
            <stop offset="0%" stop-color="#F71D69"/>
            <stop offset="100%" stop-color="#F8C648"/>
        </linearGradient>
        <linearGradient id="e" x1="0%" y1="49.999%" y2="49.999%">
            <stop offset="0%" stop-color="#93FD94"/>
            <stop offset="100%" stop-color="#21C4C0"/>
        </linearGradient>
        <linearGradient id="f" x1="0%" y1="50.033%" y2="50.033%">
            <stop offset="0%" stop-color="#93FD94"/>
            <stop offset="100%" stop-color="#21C4C0"/>
        </linearGradient>
        <linearGradient id="g" x1="0%" y1="50.037%" y2="50.037%">
            <stop offset="0%" stop-color="#93FD94"/>
            <stop offset="100%" stop-color="#21C4C0"/>
        </linearGradient>
        <linearGradient id="h" x1="0%" x2="99.698%" y1="50.002%" y2="50.002%">
            <stop offset="0%" stop-color="#93FD94"/>
            <stop offset="100%" stop-color="#21C4C0"/>
        </linearGradient>
    </defs>
    <g fill="none" fill-rule="nonzero">
        <g transform="translate(39)">
            <path fill="url(#a)" d="M22.562 84.624c-3.428-22.84-11.087-24.83-16.976-36.359C.224 37.78-4.1 20.625 11.032 8.36c23.504-19.066 52.33.444 52.33.444s45.68 26.16 53.662 27.49c7.983 1.33 27.496 14.632 51.887-1.33 24.392-15.962 45.236-14.632 51.888-2.66 6.652 11.97-8.426 46.555-11.974 53.65-3.548 7.094 1.774 29.264 7.539 38.131 5.765 8.868 23.948 36.358-15.078 35.472C162.259 158.67 45.18 160 45.18 160s-42.029-.785-34.592-41.679c6.21-34.14 13.305-24.83 11.974-33.697z" opacity=".195"/>
            <ellipse cx="37.401" cy="72.587" fill="#E5AD58" rx="8.964" ry="8.958"/>
            <ellipse cx="22.564" cy="83.707" fill="#E5AD58" opacity=".673" rx="5.873" ry="5.869"/>
            <ellipse cx="23.801" cy="69.498" fill="#E5AD58" rx="3.4" ry="3.398"/>
            <ellipse cx="7.109" cy="27.49" fill="#E5AD58" rx="3.4" ry="3.398"/>
            <ellipse cx="62.747" cy="131.892" fill="#E5AD58" opacity=".305" rx="15.764" ry="15.753"/>
            <ellipse cx="166.295" cy="144.556" fill="#E1E6FB" rx="10.509" ry="10.502"/>
            <ellipse cx="164.131" cy="37.375" fill="#E1E6FB" rx="11.437" ry="11.429"/>
            <ellipse cx="58.729" cy="6.795" fill="#E5AD58" opacity=".462" rx="5.564" ry="5.56"/>
            <ellipse cx="40.801" cy="117.375" fill="#E5AD58" opacity=".305" rx="5.564" ry="5.56"/>
        </g>
        <path fill="url(#b)" d="M4.442 97.215h110.906s4.15-.228 4.15-5.24v-9.95H.073v12.076c.582 1.899 2.33 3.19 4.296 3.114" transform="translate(0 40)"/>
        <path fill="url(#c)" d="M.073 6.835L0 85.823l119.498-1.14V4.558S120.226 0 115.566 0H4.588S-.437 0 .073 6.835" transform="translate(0 40)"/>
        <path fill="#6D7278" d="M50.319 158.405v-21.95l17.477.76v19.291z"/>
        <path fill="#6D7278" d="M22.574 156.203h72.602L95.25 160H22.574z"/>
        <path fill="#FFF" d="M58.693 127.418c1.966 0 3.496 1.595 3.496 3.645s-1.53 3.646-3.496 3.646-3.495-1.595-3.495-3.646c0-2.05 1.602-3.645 3.495-3.645"/>
        <path fill="#F8F8FF" d="M3.714 43.797h112.143v76.709H3.714z"/>
        <path fill="#FA5F5D" d="M9.321 47.747c.947 0 1.748.835 1.748 1.823 0 .987-.801 1.822-1.748 1.822s-1.748-.835-1.748-1.822c0-.988.801-1.823 1.748-1.823"/>
        <path fill="#FDBC4E" d="M15.292 47.747c.947 0 1.748.835 1.748 1.823 0 .987-.801 1.822-1.748 1.822-.946 0-1.747-.835-1.747-1.822 0-.988.8-1.823 1.747-1.823"/>
        <path fill="#37CD58" d="M21.555 47.747c.947 0 1.748.835 1.748 1.823 0 .987-.801 1.822-1.748 1.822s-1.748-.835-1.748-1.822c0-.988.801-1.823 1.748-1.823"/>
        <path fill="url(#d)" d="M45.95 21.114c-.073.987-.874 1.747-1.82 1.67H22.646c-1.092 0-2.184-.759-2.184-1.67v-3.418c0-.911 1.019-1.747 2.184-1.747h21.41c.946-.076 1.82.684 1.893 1.671v3.494z" transform="translate(0 40)"/>
        <path fill="url(#e)" d="M97.652 43.747c-.073 1.063-.947 1.899-1.966 1.823H22.647c-1.092 0-2.184-.836-2.184-1.823v-16.86c0-.988 1.092-1.824 2.184-1.824h73.039c1.02-.076 1.893.76 1.966 1.823v16.86z" transform="translate(0 40)"/>
        <path fill="url(#f)" d="M44.493 58.177c0 .988-.8 1.823-1.747 1.823H22.647c-1.165 0-2.184-.835-2.184-1.823v-9.266c0-.987 1.092-1.822 2.184-1.822H42.6c.947-.076 1.82.683 1.893 1.746v9.342z" transform="translate(0 40)"/>
        <path fill="url(#g)" d="M70.709 58.177c0 .988-.801 1.823-1.748 1.823H48.862c-1.165 0-2.184-.835-2.184-1.823v-9.266c0-.987 1.092-1.822 2.184-1.822h19.953c.947-.076 1.82.683 1.894 1.746v9.342z" transform="translate(0 40)"/>
        <path fill="url(#h)" d="M97.652 58.177c-.073 1.064-.947 1.899-1.966 1.823H75.733c-1.092.076-1.966-.76-2.112-1.823v-9.266c.073-1.139 1.02-1.898 2.112-1.822h19.953c1.02-.076 1.966.76 2.039 1.822v9.266h-.073z" transform="translate(0 40)"/>
        <path fill="#E9EDFB" d="M70.709 103.418a1.06 1.06 0 0 1-.801.683c-.073 0-.073 0-.146-.304H47.77c-.437.304-1.092 0-1.092-.38v-.303c0-.38.655-.76 1.092-.836h21.992c.364.076.583.38.655.684 0 .076 0 .076.219.152v.304h.073zM70.709 106.38c-.146.38-.437.683-.801.76 0 0-.073 0-.073-.305H47.77c-.437.304-1.092 0-1.092-.455v-.304c0-.38.655-.684 1.092-.76h21.992c.364.076.728.38.874.76v.304h.073zM70.709 109.418c-.146.455-.51.76-.874.835v-.38H47.77c-.364.228-.8.152-1.02-.227-.072-.076-.072-.152-.072-.228v-.304c0-.38.655-.608 1.092-.76h21.992c.364.076.728.38.874.76l.073.304zM70.709 112.38c-.219.455-.51.911-.874 1.29H47.77c-.437-.379-1.092-.835-1.092-1.29v-.304c0-.38.655-.835 1.092-.684h21.992c.291-.076.583.152.655.456v.228l.219.076v.228h.073zM58.475 115.418c0 .38-.219.531-.656.531H47.697c-.437 0-1.02-.152-1.02-.531v-.304c0-.38.583-.684 1.02-.684H57.82c.365 0 .656.304.656.684v.304zM97.652 103.418c-.437.38-.364.683-.8.38H74.858c-.364.303-.728.075-.728-.304l.219-.076v-.304c-.219-.38.072-.76.51-.836H96.85c.437.152.364.456.801.836v.304zM97.652 106.38c-.437.38-.364.76-.8.455H74.858c-.437.304-.728 0-.51-.455v-.304c-.218-.38.073-.684.51-.76h21.992c.437.152.364.38.801.76v.304zM97.652 109.418c-.437.38-.364.835-.8.455H74.858c-.437.304-.728 0-.51-.455v-.304c-.218-.38.073-.608.51-.76h21.992c.437.152.364.38.801.76v.304zM97.652 112.38c-.437.38-.364.911-.8 1.29H74.858c-.437-.455-.728-.835-.51-1.29v-.304c-.145-.152-.145-.456 0-.608.146-.076.292-.152.438-.076H96.85c.437-.151.364.304.801.684v.304zM85.564 115.418c0 .38 0 .531-.364.531H75.005c-.437 0-.655-.152-.655-.531v-.304c0-.38.29-.684.655-.684h10.122c.437 0 .364.304.364.684l.073.304zM43.765 103.418c.291.38.146.683-.291.38H21.409c-.291.227-.655.151-.8-.076-.074-.076-.074-.152-.146-.304v-.304c.145-.456.51-.76.946-.836h21.992c.437.152.583.456.291.836v.304h.073zM43.765 106.38c.291.38.146.76-.291.455H21.409c-.437.38-.8 0-.946-.455v-.304c.072-.38.51-.684.946-.76h21.992c.437.152.583.38.291.76v.304h.073zM43.765 109.418c.291.38.146.835-.291.455H21.409c-.437.38-.8 0-.946-.455v-.304c.072-.38.51-.608.946-.76h21.992c.437.152.583.38.291.76v.304h.073zM37.211 111.392h6.263c.437-.151.582.304.291.684v.304c.291.38.146.911-.291 1.29H21.409c-.437-.303-.728-.759-.946-1.29v-.304a.826.826 0 0 1 .946-.684h15.802M32.842 115.418c0 .38-.218.531-.655.531H21.264c-.437 0-.801-.152-.801-.531v-.304c.072-.38.436-.684.8-.684h10.924c.364 0 .655.304.655.608v.38z"/>
    </g>
</svg>
