<svg xmlns="http://www.w3.org/2000/svg" width="409" height="283" viewBox="0 0 409 283">
    <defs>
        <linearGradient id="a" x1="50%" x2="50%" y1="0%" y2="100%">
            <stop offset="0%" stop-color="#FA6400"/>
            <stop offset="100%" stop-color="#E5AD58"/>
        </linearGradient>
        <linearGradient id="b" x1="0%" y1="50%" y2="50%">
            <stop offset="0%" stop-color="#5ACEED"/>
            <stop offset="100%" stop-color="#4F68CA"/>
        </linearGradient>
        <linearGradient id="c" x1="0%" y1="50%" y2="50%">
            <stop offset="0%" stop-color="#F87B58"/>
            <stop offset="63%" stop-color="#F89453"/>
            <stop offset="81%" stop-color="#F8C548"/>
            <stop offset="94%" stop-color="#F89952"/>
            <stop offset="100%" stop-color="#F89C51"/>
        </linearGradient>
        <linearGradient id="d" x1="0%" y1="50%" y2="50%">
            <stop offset="0%" stop-color="#F7B500"/>
            <stop offset="100%" stop-color="#F7B500"/>
        </linearGradient>
        <linearGradient id="e" x1="0%" y1="50%" y2="50%">
            <stop offset="0%" stop-color="#FA6400"/>
            <stop offset="100%" stop-color="#4B44BE"/>
        </linearGradient>
    </defs>
    <g fill="none" fill-rule="evenodd">
        <g fill-rule="nonzero" transform="translate(258 69)">
            <path fill="#4C4C4C" d="M16.736 0c8.191 0 9.191 26.323 14.831 51 5.64 24.677-6.64 51-14.83 51C8.545 102-5.02 84.035 1.905 51 8.83 17.965 8.546 0 16.736 0z"/>
            <ellipse cx="17.531" cy="76.5" fill="#797979" stroke="#979797" rx="11.344" ry="11.22"/>
        </g>
        <g>
            <path fill="#E5AD58" fill-rule="nonzero" d="M1.142 231.483s-8.628-71.138 21.57-92.696c26.296-18.777 48.17-30.18 92.747-31.618 44.579-1.437 69.017-1.444 95.624-30.896S273.661 2.318 313.889.823C352.716-.62 376.44 11.6 398.724 97.831c22.286 86.232-.722 130.778-1.445 131.493-.498.513-396.137 2.16-396.137 2.16z" opacity=".166"/>
            <path fill="#E5AD58" fill-rule="nonzero" d="M182.092 175.216c2.45-29.61-6.677-72.944 3.974-78.974 10.514-5.944 14.098-7.887 25.01-19.97 26.6-29.458 62.55-73.96 102.813-75.449C352.716-.62 376.44 11.6 398.724 97.831c11.143 43.116 10.486 65.894 9.394 79.508-.592 7.49-1.185 17.24-1.546 17.593-.499.513-226.51 4.875-224.48-19.716z" opacity=".116"/>
            <path fill="url(#a)" fill-rule="nonzero" d="M92.047 79.631L88.853 230.04c0 1.076 2.89.722 3.613.722H96.8l-.664-150.884 25.826.722-11.215-63.316a6.865 6.865 0 0 0-6.764-5.67h-17.82a8.786 8.786 0 0 0-8.67 7.222l-10.92 60.327 25.473.47z"/>
            <path fill="#E5AD58" fill-rule="nonzero" d="M47.577 195.315s-.159 5.893.838 6.55c.428.336.92.582 1.445.723l4.965 26.772s14.553 2.643 21.83-.332l4.964-26.448 1.655-.664.665-6.608s-17.841-5.944-36.362.007z" opacity=".428"/>
            <path fill="#E5AD58" fill-rule="nonzero" d="M49.246 202.414s19.51 1.495 21.816.838c2.305-.657 1.655-5.95 1.655-5.95l9.589-.99s0 5.618-.665 6.283a9.163 9.163 0 0 0-1.655 2.975c0 .333-3.967 23.833-3.967 23.833s-6.287.99-7.277.99c-.99 0 2.645-19.464 2.645-20.829 0-1.365 0-3.965-.99-3.965s-20.117.57-20.233-1.56a3.553 3.553 0 0 0-.918-1.625z" opacity=".788"/>
            <path fill="#E5AD58" fill-rule="nonzero" d="M56.928 196.55s-5.442-3.82-8.332-4.167c-2.89-.347-6.244-.722-9.134-1.17-2.89-.448-6.576-1.74-6.504-3.43.073-1.69.42-2.5 2.118-3.503a11.457 11.457 0 0 1 4.747-1.755c1.272-.116 14.323 3.271 19.764 11.367l2.168 2.658h-4.827z"/>
            <path fill="#BAC4F6" fill-rule="nonzero" stroke="#FFF" stroke-linecap="round" stroke-width=".75" d="M38.089 187.103s5-.065 7.74.824a43.91 43.91 0 0 1 6.206 2.889l8.188 5.698"/>
            <path fill="#E5AD58" fill-rule="nonzero" d="M62.658 196.326s-6.33-8.594-8.794-11.014c-2.464-2.42-5.348-5.185-7.725-7.713-2.377-2.528-5.376-6.153-4.112-7.64 1.265-1.489 2.168-2.5 4.473-2.168 1.803.193 3.528.83 5.022 1.857 1.272.823 12.769 11.779 14.453 24.367l1.655 2.55-4.972-.239z"/>
            <path stroke="#FFF" stroke-linecap="round" stroke-width=".75" d="M47.787 172.847s4.928 2.947 6.864 5.778c1.829 2.643 4.726 7.373 4.726 7.373l3.288 9.02"/>
            <path fill="#E5AD58" fill-rule="nonzero" d="M65.823 196.752s-7.392-16.04-8.773-19.21c-1.38-3.171-7.023-7.945-8.273-11.18-1.25-3.236-2.045-5.59-.723-7.367 1.322-1.777 4.719-3.25 6.886-2.167 2.045.997 4.705 4.03 5.846 5.569.91 1.213 6.96 23.002 6.46 28.029l1.157 6.435-2.58-.109z" opacity=".117"/>
            <path stroke="#FFF" stroke-linecap="round" stroke-width=".75" d="M52.801 162.736s4.242 5.46 5.528 8.667c1.446 3.61 2.89 10.493 2.703 9.388l4.415 14.9"/>
            <path fill="#E5AD58" fill-rule="nonzero" d="M61.77 196.63s-6.504-7.418-9.677-8.855c-3.172-1.437-6.778-3.062-9.878-4.608-3.1-1.545-6.821-4.167-6.193-5.741.629-1.575 1.272-2.21 3.512-2.506a15.263 15.263 0 0 1 5.897.159c1.445.375 15.03 8.58 18.52 18.322l1.612 3.358-3.794-.13z" opacity=".127"/>
            <path stroke="#FFF" stroke-linecap="round" stroke-width=".75" d="M42.02 178.77s5.63 1.848 8.426 3.74a56.92 56.92 0 0 1 6.04 5.099l6.244 9.085" opacity=".117"/>
            <path fill="#E5AD58" fill-rule="nonzero" d="M78.78 196.796s5.889-3.612 9.018-3.98c3.129-.368 6.749-.679 9.885-1.12 3.136-.44 7.118-1.66 7.038-3.278-.08-1.618-.448-2.39-2.29-3.351-1.582-.9-3.33-1.47-5.138-1.676-1.38-.108-15.5 3.12-21.39 10.833l-2.377 2.543 5.253.029z"/>
            <path fill="#BAC4F6" fill-rule="nonzero" stroke="#FFF" stroke-linecap="round" stroke-width=".75" d="M99.15 187.782s-5.405-.065-8.375.788a50.6 50.6 0 0 0-6.72 2.744l-7.855 5.272"/>
            <path fill="#E5AD58" fill-rule="nonzero" d="M72.572 196.586s6.843-8.204 9.517-10.515c2.674-2.311 5.781-4.955 8.36-7.367 2.58-2.412 5.818-5.871 4.445-7.301-1.373-1.43-2.341-2.391-4.842-2.088a12.81 12.81 0 0 0-5.434 1.77c-1.38.78-13.816 11.252-15.637 23.27l-1.785 2.433 5.376-.202z"/>
            <path stroke="#FFF" stroke-linecap="round" stroke-width=".75" d="M88.672 174.176s-5.333 2.81-7.428 5.489c-1.98 2.527-5.11 7.041-5.11 7.041l-3.562 8.609"/>
            <path fill="#E5AD58" fill-rule="nonzero" d="M69.161 196.998s8-15.318 9.488-18.352c1.489-3.033 7.602-7.568 8.954-10.674 1.35-3.105 2.21-5.344.794-7.034-1.416-1.69-5.108-3.106-7.45-2.095-2.21.954-5.058 3.85-6.323 5.316-.982 1.163-7.53 21.962-6.994 26.772l-1.25 6.146 2.781-.08z" opacity=".117"/>
            <path fill="#E5AD58" fill-rule="nonzero" d="M68.388 196.803s.643-14.95 2.168-19.803c1.033-3.214 2.045-8.667 3.396-11.736 1.352-3.07-.722-7.107-2.11-8.804-1.387-1.697-5.058-1.372-7.428-.368-2.211.953-3.483 4.037-3.765 5.683-.253 1.503 5.058 19.536 4.495 26.13l.455 8.984 2.79-.086z"/>
            <path stroke="#FFF" stroke-linecap="round" stroke-width=".75" d="M83.245 164.534s-4.588 5.215-5.983 8.27c-1.575 3.459-3.143 10.024-2.89 8.94l-5.196 14.59"/>
            <path fill="#E5AD58" fill-rule="nonzero" d="M73.54 196.882s7.075-7.085 10.471-8.457c3.396-1.372 7.335-2.889 10.688-4.398 3.353-1.51 7.378-3.98 6.698-5.482-.679-1.502-1.38-2.109-3.8-2.39a18.668 18.668 0 0 0-6.381.151c-1.59.361-16.26 8.19-20.038 17.5l-1.742 3.206 4.105-.13z" opacity=".117"/>
            <path stroke="#FFF" stroke-linecap="round" stroke-width=".75" d="M94.915 179.816s-6.091 1.763-9.112 3.568a60.235 60.235 0 0 0-6.54 4.868l-6.893 7.64M66.929 159.284s1.228 12.805.513 16.25c-.297 1.444-.152 10.45-.152 10.45l-.296 9.974"/>
            <path fill="#E5AD58" fill-rule="nonzero" d="M67.203 75.789l53.625.99 1.099 3.805-55.36-1.437z"/>
            <path fill="#FCD69D" fill-rule="nonzero" d="M330.864 85.098l-.441 105.306 66.914.18s.484-55.458-2.168-108.57l-64.168-.96-.137 4.044z"/>
            <path fill="#FBD69F" fill-rule="nonzero" d="M267.902 98.712l-1.777 91.937h57.195l-.405-91.937z"/>
            <path fill="#E5AD58" fill-rule="nonzero" d="M184.845 152.661l82.205.426-.925 37.562-80.97-.028z" opacity=".556"/>
            <path fill="#FFF" fill-rule="nonzero" d="M178.074 99.665l.202 91.18s.499 5.734 5.984 5.98c5.484.245 221.662.339 221.662.339s1.929-6.045 1.185-6.298c-.745-.253-221.951-.245-221.951-.245s.065-3.229.065-5.294c0-2.297-.123-88.536-.123-88.536a38 38 0 0 1-7.024 2.874z"/>
            <path fill="#FFF" fill-rule="nonzero" d="M182.843 108.722l218.729 1.307 1.156 4.738-219.885 1.054z"/>
            <path fill="#FFF" fill-rule="nonzero" d="M244.562 37.721v153.087l5.773.448V33.727zM349.023 6.919l-.13 183.89 5.333-.441.83-179.86z"/>
            <path fill="#FFF" fill-rule="nonzero" d="M250.335 33.727l124.832.759-3.591-6.464-114.137-.058z"/>
            <ellipse cx="271.378" cy="51.198" fill="#FFF" fill-rule="nonzero" rx="12.689" ry="12.682"/>
            <ellipse cx="283.727" cy="55.278" fill="#FFF" fill-rule="nonzero" rx="8.317" ry="8.313"/>
            <ellipse cx="367.638" cy="62.897" fill="#FFF" fill-rule="nonzero" rx="12.928" ry="12.92"/>
            <ellipse cx="354.32" cy="64.544" fill="#FFF" fill-rule="nonzero" rx="8.469" ry="8.464"/>
        </g>
        <g fill-rule="nonzero">
            <path fill="#4B44BE" d="M222.829 274.092a45.688 45.688 0 0 0-.944-7.545l-9.959.21s-.314 5.449-4.822 6.34l-1.887.576c-2.359.471-5.19 1.31-6.814 2.41-.053-.42-.053-.786-.053-1.153-.157-2.724-.681-5.397-1.52-8.017l-11.165.42s.577 5.24-3.93 6.13l-1.94.524c-4.246.838-9.854 2.777-7.496 5.711 1.835 2.201 20.862 3.197 24.269 2.568 1.31-.21 1.782-1.153 1.94-2.358 4.035 1.782 19.97 2.2 23.063 1.52 2.463-.577 1.362-4.454 1.258-7.336z"/>
            <path fill="url(#b)" d="M58.864 195.654c-.472 3.878 2.516 24.051 2.516 27.876 0 3.825 7.18 44.958 7.18 44.958l11.375-.524s-2.254-60.52-2.044-63.454c.21-2.935 12.684-38.094 12.684-38.094s.892 9.275.892 12.261c0 2.987 3.459 88.553 3.459 88.553h9.907l14.1-126.07-.262-2.41-52.05-7.23c.053-.053-7.286 60.31-7.757 64.134" transform="translate(117 -.474)"/>
            <path fill="url(#c)" d="M128.997 114.752l-10.274 27.876-1.782 13.623 8.649-7.598c.471-.419 1.415-2.567 1.939-3.668l5.19-14.514 3.826-23.16s-5.819-10.48-12.633-22.793l5.085 30.234zm-5.085-30.234l-.42-2.463-1.047-.21 1.467 2.673zM89.055 14.252c-1.625-.157-3.25-.157-4.874.105-.472.105-1.992 3.196-3.04 5.397-1.363 2.83-1.625 7.336-1.625 10.218 0 3.615 3.616 7.702 8.124 10.584 1.992 1.258.734 7.912-.262 8.541-.996.629-20.128 14.776-20.128 14.776l-13.785-7.545-37.53-32.172-1.887-2.358S9.854 3.93 8.282 3.196C5.556 1.94 3.564 6.497 1.048 10.27c-1.415 2.148-1.415 8.489.262 10.427l7.286 8.856L48.747 62.51l11.165 3.563 12.685 6.917 49.795 8.907c-8.858-16.034-18.817-34.006-19.708-35.892-.787-1.52-.944-3.25-.525-4.874a33.513 33.513 0 0 1 2.621-6.55c.787-1.1 1.206-3.196 1.416-4.4.21-1.206.21-.84-.84.209-.314.262-1.205.314-1.624-1.52-.42-1.834-5.923-4.453-8.596-6.759 0 0-2.83-.734-5.714-1.73l-.367-6.13z" transform="translate(117 -.474)"/>
            <path fill="url(#d)" d="M71.443 50.512c-3.197.314-5.084-.262-8.858-1.1-3.04-.734-8.649-1.94-10.588-2.725-8.334-3.301-36.639-23.108-37.792-24.994-.63-1.048-5.556 4.925-5.871 7.598-.052.733 8.492 9.955 12.056 13.99.629.733 5.975 6.34 7.915 7.807 4.298 3.249 14.729 9.851 17.612 11.685 2.201 1.415 9.225 5.083 17.192 7.493 5.347 1.624 6.762 2.934 8.44 6.602 1.781 3.93-6.029 49.254-6.029 49.254s-.21 8.28 1.416 9.117c1.415.734 18.136 5.607 22.172 7.127 2.935.471 5.87.733 8.858.89l21.072-2.934s-.315-39.875.052-46.53c.367-6.55-.472-10.165.681-8.383 1.31 1.991 6.815 19.911 6.815 22.95 0 3.04-6.028 29.5-6.028 29.5l8.072 4.454s10.902-29.08 11.531-32.958c.63-3.878.787-5.869-.996-9.694-1.782-3.825-11.74-38.617-11.74-38.617s-.997-4.244-8.283-6.445c-7.285-2.2-14.362-8.227-22.539-3.51-8.439 4.82-11.898-.158-11.898-.158s-8.334.42-13-.314" transform="translate(117 -.474)"/>
            <path fill="url(#e)" d="M104.099 5.869c.943.733 3.774 3.353 4.77 4.139 1.153.89 1.782 2.148 2.778 3.773.524.838 1.31 3.196 1.677 4.14 2.097 5.344.053 7.65-1.572 11.474-2.254 5.24-7.339 6.026-7.758 6.76-4.036-1.31-4.508-.839-6.29-.262-2.254-1.52-3.25-3.563-4.455-4.611.734-1.048-1.468-10.742-3.093-5.66-.681-2.305-2.778-7.125-3.669-7.754-.891-.629-1.94-1.415-1.835-1.782.472-2.148-3.092-1.834.053-4.087 2.516-1.834 3.512-6.078 6.814-6.392 2.044-.21 4.665-.42 6.762-.734 1.467-.21 2.673.472 3.93.629.682.052 1.311.314 1.888.629" transform="translate(117 -.474)"/>
            <path fill="#000" d="M209.358 159.654c-1.416 4.088-6.867 12.104-10.379 16.82-3.512 4.716-14.572 14.881-13.89 27.195.681 12.313 8.177 43.962 8.177 46.844 0 2.882-2.778 16.296-4.875 20.435-2.097 4.14-1.73 8.436-.681 8.436.471 0 2.201.629 4.612 0 1.835-.471 4.246 1.467 5.242.996.734-.315.891-2.673.891-2.673.052-.995-.052-1.99-.367-2.934-.524-1.52-.891-3.091-1.153-4.663-.42-11.58-1.415-38.408-1.206-40.295.367-3.51-2.41-21.22.105-29.919 2.516-8.698 13.471-40.242 13.524-40.242M235.775 88.707l-.104 41.08s1.048 8.699-.42 9.642c-1.467.943-7.286 1.677-9.068 1.677-1.205 0-17.454 1.886-11.689-.996 2.569-1.31 18.818-10.375 13.629-19.335-5.19-8.96-2.778-20.383.996-28.138 3.774-7.755 6.709-12.942 6.709-12.942l-.053 9.012z" opacity=".07"/>
            <path fill="#000" d="M131.257 21.271l-5.399 3.93c-.367.262-.838.157-1.1-.157a.595.595 0 0 1-.158-.42l-.576-7.86 1.415-2.462c.157-.314.262-.681.21-.995l-.42-3.878c0-.157-.052-.262-.104-.419l-1.94-7.44c-.052-.42.262-.787.682-.839l5.87-.681c.42-.052.839.262.891.681v.052l.996 19.807c0 .314-.105.524-.367.681z"/>
            <path fill="#000" d="M204.535 39.244s3.827-.734 5.714-2.201c1.887-1.467-2.359 2.777-3.722 4.454-1.363 1.677-1.992-2.253-1.992-2.253zM229.276 155.882s-3.774 15.3-7.181 19.806c-3.617 4.82.367 26.985-2.988 36.731-3.197 9.222 1.153 29.238.367 35.631-.629 5.24-.734 16.505-3.512 22.793-.943 2.149-2.935 3.72-2.935 4.716 0 5.607 7.6 1.991 7.6 1.991l.42-4.978 5.189-44.014 9.592-87.348-6.552 14.672z" opacity=".07"/>
        </g>
    </g>
</svg>
